<svg width="316" height="171" viewBox="0 0 316 171" fill="none" xmlns="http://www.w3.org/2000/svg">
<g clip-path="url(#clip0)">
<path opacity="0.1" d="M316 109.758C316.004 114.403 315.367 119.027 314.108 123.497C312.891 127.807 311.1 131.933 308.785 135.763C308.785 149.641 299.443 161.635 285.883 167.342C280.217 169.702 274.139 170.907 268.003 170.887H59.9875C48.8695 170.887 38.5664 167.879 30.1167 162.754C27.6984 161.294 25.4044 159.637 23.258 157.799C13.8664 149.705 8.04364 138.519 8.04364 126.165C2.77278 118.026 -0.0220751 108.524 7.78611e-06 98.8191C7.78611e-06 78.4981 11.9854 61.0247 29.1554 53.3101C31.4354 52.2862 33.7913 51.4416 36.2019 50.7839C37.0545 50.5512 37.9163 50.3425 38.7873 50.1578C41.1093 49.662 43.4645 49.3379 45.8338 49.1883C46.6901 49.1348 47.551 49.1043 48.4165 49.0969H48.8916C49.8473 49.0969 50.7948 49.1302 51.7367 49.1856L52.0461 48.6593C52.4254 48.024 52.814 47.3952 53.2118 46.7729C53.9299 45.639 54.6831 44.5217 55.4713 43.4211C56.2963 42.2595 57.1571 41.1164 58.054 39.9918L58.2832 39.7148C58.7915 39.0795 59.3108 38.4517 59.8411 37.8312C61.4985 35.894 63.2479 34.015 65.0894 32.1941C85.0079 12.6155 116.213 0.0118408 151.293 0.0118408C178.59 0.0118408 203.541 7.64329 222.653 20.2525C229.893 16.1436 238.072 13.9876 246.392 13.995C273.39 13.995 295.283 36.2578 295.283 63.7199C295.279 65.4576 295.187 67.1939 295.007 68.9221C301.515 73.542 306.819 79.6637 310.473 86.7708C314.127 93.8779 316.022 101.762 316 109.758V109.758Z" fill="#392D71"/>
<path opacity="0.2" d="M65.0949 32.1824V37.8194H59.8466C61.4911 35.8841 63.2405 34.0051 65.0949 32.1824Z" fill="#233786"/>
<path opacity="0.2" d="M74.7268 30.7529H67.6803V37.8193H74.7268V30.7529Z" fill="#233786"/>
<path opacity="0.2" d="M84.356 30.7529H77.3095V37.8193H84.356V30.7529Z" fill="#233786"/>
<path opacity="0.2" d="M93.9879 30.7529H86.9414V37.8193H93.9879V30.7529Z" fill="#233786"/>
<path opacity="0.2" d="M103.617 30.7529H96.5706V37.8193H103.617V30.7529Z" fill="#233786"/>
<path opacity="0.2" d="M113.249 30.7529H106.203V37.8193H113.249V30.7529Z" fill="#233786"/>
<path d="M122.881 30.7529H115.834V37.8193H122.881V30.7529Z" fill="#233786"/>
<path opacity="0.2" d="M132.51 30.7529H125.464V37.8193H132.51V30.7529Z" fill="#233786"/>
<path opacity="0.2" d="M142.142 30.7529H135.096V37.8193H142.142V30.7529Z" fill="#233786"/>
<path opacity="0.2" d="M151.771 30.7529H144.725V37.8193H151.771V30.7529Z" fill="#233786"/>
<path d="M161.403 30.7529H154.357V37.8193H161.403V30.7529Z" fill="#233786"/>
<path opacity="0.2" d="M171.035 30.7529H163.989V37.8193H171.035V30.7529Z" fill="#233786"/>
<path opacity="0.2" d="M180.664 30.7529H173.618V37.8193H180.664V30.7529Z" fill="#233786"/>
<path opacity="0.2" d="M190.296 30.7529H183.25V37.8193H190.296V30.7529Z" fill="#233786"/>
<path opacity="0.2" d="M199.928 30.7529H192.882V37.8193H199.928V30.7529Z" fill="#233786"/>
<path opacity="0.2" d="M209.557 30.7529H202.511V37.8193H209.557V30.7529Z" fill="#233786"/>
<path opacity="0.2" d="M219.189 30.7529H212.143V37.8193H219.189V30.7529Z" fill="#233786"/>
<path d="M228.818 30.7529H221.772V37.8193H228.818V30.7529Z" fill="#233786"/>
<path d="M238.45 30.7529H231.404V37.8193H238.45V30.7529Z" fill="#233786"/>
<path opacity="0.2" d="M248.082 30.7529H241.036V37.8193H248.082V30.7529Z" fill="#233786"/>
<path opacity="0.2" d="M257.711 30.7529H250.665V37.8193H257.711V30.7529Z" fill="#233786"/>
<path d="M267.343 30.7529H260.297V37.8193H267.343V30.7529Z" fill="#233786"/>
<path d="M276.972 30.7529H269.926V37.8193H276.972V30.7529Z" fill="#233786"/>
<path d="M55.4657 43.4176V46.7694H53.2062C53.9244 45.6281 54.6776 44.5108 55.4657 43.4176Z" fill="#233786"/>
<path opacity="0.2" d="M65.0949 39.703H58.0484V46.7694H65.0949V39.703Z" fill="#233786"/>
<path d="M74.7268 39.703H67.6803V46.7694H74.7268V39.703Z" fill="#233786"/>
<path opacity="0.2" d="M84.356 39.703H77.3095V46.7694H84.356V39.703Z" fill="#233786"/>
<path opacity="0.7" d="M93.9879 39.703H86.9414V46.7694H93.9879V39.703Z" fill="#233786"/>
<path opacity="0.2" d="M103.617 39.703H96.5706V46.7694H103.617V39.703Z" fill="#233786"/>
<path opacity="0.4" d="M113.249 39.703H106.203V46.7694H113.249V39.703Z" fill="#233786"/>
<path d="M122.881 39.703H115.834V46.7694H122.881V39.703Z" fill="#233786"/>
<path opacity="0.4" d="M132.51 39.703H125.464V46.7694H132.51V39.703Z" fill="#233786"/>
<path opacity="0.2" d="M142.142 39.703H135.096V46.7694H142.142V39.703Z" fill="#233786"/>
<path opacity="0.4" d="M151.771 39.703H144.725V46.7694H151.771V39.703Z" fill="#233786"/>
<path d="M161.403 39.703H154.357V46.7694H161.403V39.703Z" fill="#233786"/>
<path opacity="0.4" d="M171.035 39.703H163.989V46.7694H171.035V39.703Z" fill="#233786"/>
<path opacity="0.4" d="M180.664 39.703H173.618V46.7694H180.664V39.703Z" fill="#233786"/>
<path opacity="0.2" d="M190.296 39.703H183.25V46.7694H190.296V39.703Z" fill="#233786"/>
<path opacity="0.4" d="M199.928 39.703H192.882V46.7694H199.928V39.703Z" fill="#233786"/>
<path opacity="0.4" d="M209.557 39.703H202.511V46.7694H209.557V39.703Z" fill="#233786"/>
<path opacity="0.2" d="M219.189 39.703H212.143V46.7694H219.189V39.703Z" fill="#233786"/>
<path opacity="0.2" d="M228.818 39.703H221.772V46.7694H228.818V39.703Z" fill="#233786"/>
<path opacity="0.4" d="M238.45 39.703H231.404V46.7694H238.45V39.703Z" fill="#233786"/>
<path opacity="0.2" d="M248.082 39.703H241.036V46.7694H248.082V39.703Z" fill="#233786"/>
<path d="M257.711 39.703H250.665V46.7694H257.711V39.703Z" fill="#233786"/>
<path d="M267.343 39.703H260.297V46.7694H267.343V39.703Z" fill="#233786"/>
<path d="M276.972 39.703H269.926V46.7694H276.972V39.703Z" fill="#233786"/>
<path opacity="0.2" d="M36.2019 50.7831V55.7221H29.1554V53.3094C31.4354 52.2854 33.7913 51.4408 36.2019 50.7831V50.7831Z" fill="#233786"/>
<path opacity="0.2" d="M45.8338 49.1875V55.722H38.7874V50.157L45.8338 49.1875Z" fill="#233786"/>
<path d="M55.463 48.6558H48.4165V55.7221H55.463V48.6558Z" fill="#233786"/>
<path opacity="0.7" d="M65.0949 48.6558H58.0484V55.7221H65.0949V48.6558Z" fill="#233786"/>
<path d="M74.7268 48.6558H67.6803V55.7221H74.7268V48.6558Z" fill="#233786"/>
<path opacity="0.7" d="M84.356 48.6558H77.3095V55.7221H84.356V48.6558Z" fill="#233786"/>
<path opacity="0.7" d="M93.9879 48.6558H86.9414V55.7221H93.9879V48.6558Z" fill="#233786"/>
<path opacity="0.2" d="M103.617 48.6558H96.5706V55.7221H103.617V48.6558Z" fill="#233786"/>
<path opacity="0.4" d="M113.249 48.6558H106.203V55.7221H113.249V48.6558Z" fill="#233786"/>
<path opacity="0.4" d="M122.881 48.6558H115.834V55.7221H122.881V48.6558Z" fill="#233786"/>
<path d="M132.51 48.6558H125.464V55.7221H132.51V48.6558Z" fill="#233786"/>
<path opacity="0.2" d="M142.142 48.6558H135.096V55.7221H142.142V48.6558Z" fill="#233786"/>
<path opacity="0.4" d="M151.771 48.6558H144.725V55.7221H151.771V48.6558Z" fill="#233786"/>
<path d="M161.403 48.6558H154.357V55.7221H161.403V48.6558Z" fill="#233786"/>
<path opacity="0.2" d="M171.035 48.6558H163.989V55.7221H171.035V48.6558Z" fill="#233786"/>
<path opacity="0.4" d="M180.664 48.6558H173.618V55.7221H180.664V48.6558Z" fill="#233786"/>
<path opacity="0.2" d="M190.296 48.6558H183.25V55.7221H190.296V48.6558Z" fill="#233786"/>
<path d="M199.928 48.6558H192.882V55.7221H199.928V48.6558Z" fill="#233786"/>
<path opacity="0.2" d="M209.557 48.6558H202.511V55.7221H209.557V48.6558Z" fill="#233786"/>
<path opacity="0.7" d="M219.189 48.6558H212.143V55.7221H219.189V48.6558Z" fill="#233786"/>
<path opacity="0.7" d="M228.818 48.6558H221.772V55.7221H228.818V48.6558Z" fill="#233786"/>
<path opacity="0.4" d="M238.45 48.6558H231.404V55.7221H238.45V48.6558Z" fill="#233786"/>
<path opacity="0.2" d="M248.082 48.6558H241.036V55.7221H248.082V48.6558Z" fill="#233786"/>
<path d="M257.711 48.6558H250.665V55.7221H257.711V48.6558Z" fill="#233786"/>
<path d="M267.343 48.6558H260.297V55.7221H267.343V48.6558Z" fill="#233786"/>
<path d="M276.972 48.6558H269.926V55.7221H276.972V48.6558Z" fill="#233786"/>
<path opacity="0.2" d="M36.2019 57.6057H29.1554V64.6721H36.2019V57.6057Z" fill="#233786"/>
<path opacity="0.2" d="M45.8338 57.6057H38.7874V64.6721H45.8338V57.6057Z" fill="#233786"/>
<path opacity="0.2" d="M55.463 57.6057H48.4165V64.6721H55.463V57.6057Z" fill="#233786"/>
<path opacity="0.2" d="M65.0949 57.6057H58.0484V64.6721H65.0949V57.6057Z" fill="#233786"/>
<path d="M74.7268 57.6057H67.6803V64.6721H74.7268V57.6057Z" fill="#233786"/>
<path opacity="0.7" d="M84.356 57.6057H77.3095V64.6721H84.356V57.6057Z" fill="#233786"/>
<path opacity="0.7" d="M93.9879 57.6057H86.9414V64.6721H93.9879V57.6057Z" fill="#233786"/>
<path opacity="0.2" d="M103.617 57.6057H96.5706V64.6721H103.617V57.6057Z" fill="#233786"/>
<path opacity="0.2" d="M113.249 57.6057H106.203V64.6721H113.249V57.6057Z" fill="#233786"/>
<path opacity="0.4" d="M122.881 57.6057H115.834V64.6721H122.881V57.6057Z" fill="#233786"/>
<path opacity="0.4" d="M132.51 57.6057H125.464V64.6721H132.51V57.6057Z" fill="#233786"/>
<path d="M142.142 57.6057H135.096V64.6721H142.142V57.6057Z" fill="#233786"/>
<path opacity="0.2" d="M151.771 57.6057H144.725V64.6721H151.771V57.6057Z" fill="#233786"/>
<path opacity="0.4" d="M161.403 57.6057H154.357V64.6721H161.403V57.6057Z" fill="#233786"/>
<path opacity="0.4" d="M171.035 57.6057H163.989V64.6721H171.035V57.6057Z" fill="#233786"/>
<path opacity="0.4" d="M180.664 57.6057H173.618V64.6721H180.664V57.6057Z" fill="#233786"/>
<path opacity="0.4" d="M190.296 57.6057H183.25V64.6721H190.296V57.6057Z" fill="#233786"/>
<path opacity="0.2" d="M199.928 57.6057H192.882V64.6721H199.928V57.6057Z" fill="#233786"/>
<path opacity="0.2" d="M209.557 57.6057H202.511V64.6721H209.557V57.6057Z" fill="#233786"/>
<path opacity="0.2" d="M219.189 57.6057H212.143V64.6721H219.189V57.6057Z" fill="#233786"/>
<path opacity="0.2" d="M228.818 57.6057H221.772V64.6721H228.818V57.6057Z" fill="#233786"/>
<path opacity="0.7" d="M238.45 57.6057H231.404V64.6721H238.45V57.6057Z" fill="#233786"/>
<path opacity="0.7" d="M248.082 57.6057H241.036V64.6721H248.082V57.6057Z" fill="#233786"/>
<path opacity="0.4" d="M257.711 57.6057H250.665V64.6721H257.711V57.6057Z" fill="#233786"/>
<path opacity="0.2" d="M267.343 57.6057H260.297V64.6721H267.343V57.6057Z" fill="#233786"/>
<path d="M276.972 57.6057H269.926V64.6721H276.972V57.6057Z" fill="#233786"/>
<path opacity="0.2" d="M36.2019 66.5585H29.1554V73.6248H36.2019V66.5585Z" fill="#233786"/>
<path opacity="0.2" d="M45.8338 66.5585H38.7874V73.6248H45.8338V66.5585Z" fill="#233786"/>
<path opacity="0.4" d="M55.463 66.5585H48.4165V73.6248H55.463V66.5585Z" fill="#233786"/>
<path opacity="0.2" d="M65.0949 66.5585H58.0484V73.6248H65.0949V66.5585Z" fill="#233786"/>
<path opacity="0.2" d="M74.7268 66.5585H67.6803V73.6248H74.7268V66.5585Z" fill="#233786"/>
<path opacity="0.7" d="M84.356 66.5585H77.3095V73.6248H84.356V66.5585Z" fill="#233786"/>
<path opacity="0.7" d="M93.9879 66.5585H86.9414V73.6248H93.9879V66.5585Z" fill="#233786"/>
<path opacity="0.2" d="M103.617 66.5585H96.5706V73.6248H103.617V66.5585Z" fill="#233786"/>
<path opacity="0.2" d="M113.249 66.5585H106.203V73.6248H113.249V66.5585Z" fill="#233786"/>
<path opacity="0.4" d="M122.881 66.5585H115.834V73.6248H122.881V66.5585Z" fill="#233786"/>
<path d="M132.51 66.5585H125.464V73.6248H132.51V66.5585Z" fill="#233786"/>
<path opacity="0.2" d="M142.142 66.5585H135.096V73.6248H142.142V66.5585Z" fill="#233786"/>
<path d="M151.771 66.5585H144.725V73.6248H151.771V66.5585Z" fill="#233786"/>
<path d="M161.403 66.5585H154.357V73.6248H161.403V66.5585Z" fill="#233786"/>
<path d="M171.035 66.5585H163.989V73.6248H171.035V66.5585Z" fill="#233786"/>
<path opacity="0.2" d="M180.664 66.5585H173.618V73.6248H180.664V66.5585Z" fill="#233786"/>
<path d="M190.296 66.5585H183.25V73.6248H190.296V66.5585Z" fill="#233786"/>
<path opacity="0.2" d="M199.928 66.5585H192.882V73.6248H199.928V66.5585Z" fill="#233786"/>
<path opacity="0.2" d="M209.557 66.5585H202.511V73.6248H209.557V66.5585Z" fill="#233786"/>
<path opacity="0.2" d="M219.189 66.5585H212.143V73.6248H219.189V66.5585Z" fill="#233786"/>
<path opacity="0.2" d="M228.818 66.5585H221.772V73.6248H228.818V66.5585Z" fill="#233786"/>
<path opacity="0.2" d="M238.45 66.5585H231.404V73.6248H238.45V66.5585Z" fill="#233786"/>
<path opacity="0.7" d="M248.082 66.5585H241.036V73.6248H248.082V66.5585Z" fill="#233786"/>
<path opacity="0.2" d="M257.711 66.5585H250.665V73.6248H257.711V66.5585Z" fill="#233786"/>
<path opacity="0.2" d="M267.343 66.5585H260.297V73.6248H267.343V66.5585Z" fill="#233786"/>
<path d="M276.972 66.5585H269.926V73.6248H276.972V66.5585Z" fill="#233786"/>
<path opacity="0.2" d="M36.2019 75.5084H29.1554V82.5748H36.2019V75.5084Z" fill="#233786"/>
<path opacity="0.2" d="M45.8338 75.5084H38.7874V82.5748H45.8338V75.5084Z" fill="#233786"/>
<path opacity="0.2" d="M55.463 75.5084H48.4165V82.5748H55.463V75.5084Z" fill="#233786"/>
<path opacity="0.4" d="M65.0949 75.5084H58.0484V82.5748H65.0949V75.5084Z" fill="#233786"/>
<path opacity="0.2" d="M74.7268 75.5084H67.6803V82.5748H74.7268V75.5084Z" fill="#233786"/>
<path opacity="0.2" d="M84.356 75.5084H77.3095V82.5748H84.356V75.5084Z" fill="#233786"/>
<path opacity="0.7" d="M93.9879 75.5084H86.9414V82.5748H93.9879V75.5084Z" fill="#233786"/>
<path opacity="0.2" d="M103.617 75.5084H96.5706V82.5748H103.617V75.5084Z" fill="#233786"/>
<path opacity="0.2" d="M113.249 75.5084H106.203V82.5748H113.249V75.5084Z" fill="#233786"/>
<path opacity="0.2" d="M122.881 75.5084H115.834V82.5748H122.881V75.5084Z" fill="#233786"/>
<path d="M132.51 75.5084H125.464V82.5748H132.51V75.5084Z" fill="#233786"/>
<path opacity="0.2" d="M142.142 75.5084H135.096V82.5748H142.142V75.5084Z" fill="#233786"/>
<path d="M151.771 75.5084H144.725V82.5748H151.771V75.5084Z" fill="#233786"/>
<path d="M161.403 75.5084H154.357V82.5748H161.403V75.5084Z" fill="#233786"/>
<path opacity="0.2" d="M171.035 75.5084H163.989V82.5748H171.035V75.5084Z" fill="#233786"/>
<path opacity="0.2" d="M180.664 75.5084H173.618V82.5748H180.664V75.5084Z" fill="#233786"/>
<path opacity="0.2" d="M190.296 75.5084H183.25V82.5748H190.296V75.5084Z" fill="#233786"/>
<path opacity="0.2" d="M199.928 75.5084H192.882V82.5748H199.928V75.5084Z" fill="#233786"/>
<path opacity="0.2" d="M209.557 75.5084H202.511V82.5748H209.557V75.5084Z" fill="#233786"/>
<path opacity="0.2" d="M219.189 75.5084H212.143V82.5748H219.189V75.5084Z" fill="#233786"/>
<path opacity="0.2" d="M228.818 75.5084H221.772V82.5748H228.818V75.5084Z" fill="#233786"/>
<path opacity="0.2" d="M238.45 75.5084H231.404V82.5748H238.45V75.5084Z" fill="#233786"/>
<path opacity="0.2" d="M248.082 75.5084H241.036V82.5748H248.082V75.5084Z" fill="#233786"/>
<path opacity="0.2" d="M257.711 75.5084H250.665V82.5748H257.711V75.5084Z" fill="#233786"/>
<path opacity="0.4" d="M267.343 75.5084H260.297V82.5748H267.343V75.5084Z" fill="#233786"/>
<path d="M276.972 75.5084H269.926V82.5748H276.972V75.5084Z" fill="#233786"/>
<path opacity="0.7" d="M36.2019 84.4612H29.1554V91.5275H36.2019V84.4612Z" fill="#233786"/>
<path opacity="0.7" d="M45.8338 84.4612H38.7874V91.5275H45.8338V84.4612Z" fill="#233786"/>
<path opacity="0.7" d="M55.463 84.4612H48.4165V91.5275H55.463V84.4612Z" fill="#233786"/>
<path opacity="0.7" d="M65.0949 84.4612H58.0484V91.5275H65.0949V84.4612Z" fill="#233786"/>
<path opacity="0.7" d="M74.7268 84.4612H67.6803V91.5275H74.7268V84.4612Z" fill="#233786"/>
<path opacity="0.2" d="M84.356 84.4612H77.3095V91.5275H84.356V84.4612Z" fill="#233786"/>
<path opacity="0.2" d="M93.9879 84.4612H86.9414V91.5275H93.9879V84.4612Z" fill="#233786"/>
<path opacity="0.2" d="M103.617 84.4612H96.5706V91.5275H103.617V84.4612Z" fill="#233786"/>
<path opacity="0.2" d="M113.249 84.4612H106.203V91.5275H113.249V84.4612Z" fill="#233786"/>
<path opacity="0.2" d="M122.881 84.4612H115.834V91.5275H122.881V84.4612Z" fill="#233786"/>
<path opacity="0.2" d="M132.51 84.4612H125.464V91.5275H132.51V84.4612Z" fill="#233786"/>
<path d="M142.142 84.4612H135.096V91.5275H142.142V84.4612Z" fill="#233786"/>
<path opacity="0.2" d="M151.771 84.4612H144.725V91.5275H151.771V84.4612Z" fill="#233786"/>
<path opacity="0.2" d="M161.403 84.4612H154.357V91.5275H161.403V84.4612Z" fill="#233786"/>
<path opacity="0.2" d="M171.035 84.4612H163.989V91.5275H171.035V84.4612Z" fill="#233786"/>
<path d="M180.664 84.4612H173.618V91.5275H180.664V84.4612Z" fill="#233786"/>
<path opacity="0.2" d="M190.296 84.4612H183.25V91.5275H190.296V84.4612Z" fill="#233786"/>
<path opacity="0.2" d="M199.928 84.4612H192.882V91.5275H199.928V84.4612Z" fill="#233786"/>
<path opacity="0.2" d="M209.557 84.4612H202.511V91.5275H209.557V84.4612Z" fill="#233786"/>
<path opacity="0.2" d="M219.189 84.4612H212.143V91.5275H219.189V84.4612Z" fill="#233786"/>
<path opacity="0.2" d="M228.818 84.4612H221.772V91.5275H228.818V84.4612Z" fill="#233786"/>
<path opacity="0.2" d="M238.45 84.4612H231.404V91.5275H238.45V84.4612Z" fill="#233786"/>
<path opacity="0.2" d="M248.082 84.4612H241.036V91.5275H248.082V84.4612Z" fill="#233786"/>
<path opacity="0.2" d="M257.711 84.4612H250.665V91.5275H257.711V84.4612Z" fill="#233786"/>
<path opacity="0.2" d="M267.343 84.4612H260.297V91.5275H267.343V84.4612Z" fill="#233786"/>
<path d="M276.972 84.4612H269.926V91.5275H276.972V84.4612Z" fill="#233786"/>
<path d="M202.892 110.458C208.211 110.458 212.524 106.133 212.524 100.799C212.524 95.4643 208.211 91.1398 202.892 91.1398C197.572 91.1398 193.26 95.4643 193.26 100.799C193.26 106.133 197.572 110.458 202.892 110.458Z" fill="#767D9F"/>
<path d="M202.392 88.511C203.353 92.7177 204.169 96.9559 204.839 101.225C205.041 102.494 205.22 103.832 204.762 105.031C204.378 106.031 203.596 106.813 202.983 107.688C202.37 108.563 201.906 109.685 202.279 110.688C202.652 111.691 203.74 112.239 204.778 112.522C207.751 113.325 210.919 112.741 213.877 111.871C215.217 111.525 216.501 110.992 217.692 110.286C218.946 109.488 219.974 108.38 220.918 107.239C225.23 101.996 228.053 95.702 230.71 89.4473C229.003 89.6031 227.283 89.3493 225.693 88.7067C224.102 88.0642 222.687 87.0514 221.565 85.752C220.476 84.4695 219.678 82.6828 220.291 81.115C218.493 82.1039 216.358 82.1704 214.421 82.8463C213.221 83.3062 212.065 83.8765 210.969 84.5498C209.646 85.3162 208.332 86.0974 207.024 86.8933C205.53 87.7963 204.129 88.5996 202.392 88.511Z" fill="#E0AB8B"/>
<path d="M222.537 95.763C220.849 99.0566 218.653 102.223 215.518 104.184C212.383 106.145 208.162 106.677 205.022 104.738C203.475 103.791 202.304 102.35 200.953 101.137C199.602 99.9236 197.914 98.8848 196.1 99.0427C194.1 99.2172 192.533 100.782 191.194 102.281C189.161 104.558 187.197 106.932 185.758 109.627C182.995 114.807 182.341 120.862 182.462 126.735C182.584 132.607 183.432 138.449 183.451 144.322C183.479 151.546 182.258 158.712 181.023 165.828C192.376 164.427 203.743 167.49 215.12 168.651C222.402 169.402 229.738 169.385 237.058 169.366C238.345 169.366 239.715 169.332 240.787 168.618C241.442 168.139 241.972 167.507 242.331 166.778C243.342 164.909 243.748 162.776 244.03 160.668C244.745 155.344 244.767 149.953 244.787 144.579C244.836 131.56 244.883 118.494 243.234 105.577C242.828 102.4 242.309 99.2062 241.094 96.2339C239.878 93.2617 237.895 90.5276 235.122 88.9349C233.34 87.9099 229.21 86.126 227.111 87.1593C224.755 88.3116 223.667 93.5581 222.537 95.763Z" fill="#767D9F"/>
<path d="M223.377 132.527C222.948 124.494 221.206 115.921 224.915 108.79C225.827 107.04 222.556 104.854 223.567 103.159C224.801 101.092 225.737 98.8603 226.346 96.5303C226.556 95.7297 226.724 94.8821 226.526 94.0788C226.158 92.6134 224.714 91.7409 223.487 90.8489C222.134 89.8628 221.438 86.8573 221.001 85.2313C220.565 83.6053 224.473 85.5637 226.045 84.9847C228.227 84.1842 231 84.6883 233.177 85.5C234.392 85.9487 235.713 85.9875 237.008 86.0207C239.525 86.0872 242.049 86.1509 244.546 85.8407C245.668 85.6994 246.792 85.4861 247.919 85.5498C250.795 85.7133 253.294 87.6855 254.996 90.0179C256.698 92.3503 257.78 95.0677 259.175 97.594C260.338 99.6992 261.725 101.688 262.716 103.879C263.595 105.818 264.15 107.901 264.7 109.973L266.117 115.289C266.365 116.049 266.482 116.846 266.465 117.646C266.393 118.497 266.017 119.289 265.636 120.045C264.195 122.848 262.466 125.493 260.479 127.937C257.499 131.602 253.88 134.906 252.109 139.294C251.419 141.003 251.035 142.82 250.684 144.632C249.27 151.878 248.265 159.198 247.673 166.557C244.446 165.059 241.062 163.925 237.586 163.175C235.852 162.803 234.1 162.525 232.337 162.344C230.793 162.183 228.802 162.488 227.332 162.067C224.874 161.366 224.603 157.197 224.23 155.014C223.634 151.538 223.515 148 223.493 144.488C223.465 140.494 223.589 136.507 223.377 132.527Z" fill="#392D71"/>
<path d="M169.389 117.505C170.552 124.153 171.833 130.821 174.361 137.067C174.297 137.128 174.234 137.183 174.17 137.239C173.946 137.43 173.714 137.61 173.471 137.793C172.905 138.192 172.283 138.53 171.814 139.05C171.636 139.25 171.496 139.48 171.4 139.729C171.313 139.924 171.268 140.135 171.268 140.348C171.268 140.562 171.313 140.772 171.4 140.967C170.082 141.552 168.552 141.372 167.074 141.316C165.801 141.269 164.566 141.316 163.544 142.017C162.124 142.998 161.696 144.881 161.467 146.593C161.382 147.217 161.309 147.843 161.248 148.469C161.189 149.05 161.142 149.634 161.105 150.219C160.98 152.156 160.962 154.098 161.052 156.036C161.067 156.391 161.086 156.745 161.11 157.1C156.597 156.992 152.484 154.632 148.592 152.338C147.702 151.815 146.785 151.263 146.208 150.399C145.676 149.55 145.451 148.544 145.57 147.549C145.57 147.408 145.595 147.272 145.614 147.128C145.738 146.306 145.95 145.5 146.247 144.723C147.464 141.417 149.259 138.355 151.547 135.679C152.536 134.521 153.649 133.388 154.111 131.934C154.312 131.3 154.387 130.627 154.591 129.995C155.508 127.258 158.818 125.965 159.95 123.308C160.226 122.674 160.353 121.979 160.696 121.369C161.004 120.863 161.402 120.417 161.87 120.053C162.072 119.885 162.281 119.721 162.489 119.558C164.43 118.032 166.3 116.421 168.099 114.724C168.434 114.408 168.765 114.089 169.093 113.766C169.049 115.019 169.148 116.274 169.389 117.505V117.505Z" fill="#392D71"/>
<path d="M197.224 97.8433C196.826 98.2643 196.395 98.6604 195.972 99.0538L195.859 99.1563L195.412 99.5718C194.6 100.275 193.897 101.095 193.326 102.007L193.279 102.084C191.871 104.613 192.393 107.727 192.785 110.599C193.271 114.179 193.49 117.79 193.44 121.402C193.368 126.389 192.782 131.341 192.771 136.322C192.771 137.452 192.796 138.579 192.846 139.71C192.926 141.546 193.064 143.38 193.23 145.214C193.409 147.225 193.625 149.233 193.826 151.241C193.986 152.795 194.138 154.347 194.265 155.898C194.329 156.701 194.39 157.502 194.439 158.305C194.497 159.247 194.544 160.191 194.572 161.133C194.591 161.731 194.602 162.327 194.602 162.925C194.602 163.266 194.602 163.604 194.602 163.942C194.602 164.59 194.585 165.236 194.55 165.881C194.513 166.71 194.457 167.541 194.381 168.374C194.296 169.28 194.144 170.269 193.509 170.906C193.47 170.945 193.428 170.981 193.387 171.017L192.492 170.906C186.323 170.165 180.094 170.054 173.902 170.573C174.038 169.637 174.162 168.704 174.283 167.765C174.339 167.321 174.394 166.875 174.446 166.429C174.507 165.92 174.565 165.41 174.62 164.9C174.684 164.346 174.742 163.792 174.797 163.238C174.941 161.811 175.067 160.382 175.176 158.953C175.336 156.868 175.457 154.78 175.54 152.687C175.581 151.688 175.612 150.688 175.634 149.687C175.665 148.446 175.68 147.204 175.678 145.962C175.678 144.754 175.668 143.544 175.648 142.333C175.648 141.934 175.631 141.535 175.598 141.139C175.574 140.782 175.526 140.428 175.452 140.078C175.247 139.272 174.969 138.485 174.623 137.729C174.562 137.585 174.504 137.452 174.446 137.3C174.413 137.225 174.383 137.147 174.352 137.073C175.944 135.652 177.076 133.748 178.164 131.876C179.929 128.859 181.736 125.71 182.031 122.225C182.327 118.74 180.601 114.826 177.28 113.763C176.377 113.486 175.421 113.408 174.491 113.245C173.612 113.09 171.781 112.738 170.764 112.106C170.212 112.675 169.659 113.234 169.107 113.782C169.141 112.945 169.344 112.124 169.706 111.369L170.099 111.389C170.067 111.3 170.052 111.206 170.054 111.112C170.054 110.815 170.259 110.48 170.695 110.109C171.996 109.001 174.043 108.754 174.863 107.256C175.206 106.633 175.264 105.89 175.54 105.236C176.333 103.372 178.609 102.685 179.979 101.195C181.349 99.7047 181.692 97.594 182.799 95.9319C183.627 94.7182 184.774 93.7592 186.114 93.1619C186.225 93.1093 186.338 93.0566 186.451 93.0095C188.744 92.0262 191.467 91.8018 193.843 91.8074C194.765 91.8074 197.157 91.8351 198.329 92.3032C198.519 92.3712 198.693 92.4778 198.84 92.6162C200.088 93.9791 198.146 96.8571 197.224 97.8433Z" fill="#392D71"/>
<path d="M169.8 111.175C171.934 110.531 174.174 110.319 176.391 110.55C178.607 110.782 180.755 111.453 182.711 112.524C184.7 113.632 186.484 115.178 187.578 117.173C189.222 120.164 189.15 123.771 189.034 127.186C188.976 128.895 188.901 130.665 188.15 132.2C187.28 133.976 185.639 135.194 183.965 136.192C182.916 136.863 181.768 137.361 180.562 137.668C178.706 138.073 176.778 137.729 174.908 137.391C172.875 137.014 170.693 136.56 169.281 135.042C168.452 134.161 167.999 133.017 167.552 131.898C166.909 130.282 166.265 128.668 165.618 127.056C164.5 124.256 164.121 121.926 165.599 119.197C166.27 117.954 167.091 116.79 167.753 115.538C168.085 114.901 169.273 111.339 169.8 111.175Z" fill="#392D71"/>
<path d="M285.892 159.061V167.344C280.225 169.704 274.147 170.909 268.012 170.889H193.517C193.478 170.928 193.437 170.964 193.395 171L192.5 170.889H59.9875C48.8695 170.889 38.5664 167.881 30.1167 162.756V150.111L93.847 142.734H93.8967L131.01 145.887L140.614 146.718L145.603 147.142L155.928 148.02L161.24 148.471L168.974 149.131L170.063 149.222L175.637 149.696L183.2 150.319L193.834 151.222L211.563 152.732L224.034 153.792L244.513 155.535L248.408 155.864L248.828 155.9L249.192 155.931L254.336 156.369L259.982 156.851L260.636 156.906L285.892 159.061Z" fill="#504F60"/>
<path d="M211.035 158.756L131.168 145.086L128.071 160.79L164.682 165.186L175.955 166.601L206.963 160.477L211.035 158.756Z" fill="#9C9CA1"/>
<path d="M169.693 165.814L209.706 158.272C209.906 158.233 210.113 158.24 210.31 158.291C210.507 158.342 210.691 158.436 210.848 158.566C211.005 158.697 211.131 158.86 211.217 159.046C211.303 159.231 211.348 159.433 211.347 159.637V159.637C211.348 159.962 211.235 160.276 211.029 160.525C210.822 160.775 210.535 160.944 210.217 161.003L171.14 168.341L169.693 165.814Z" fill="#9C9CA1"/>
<path d="M187.05 142.095C188.296 141.978 189.559 141.782 190.68 141.228C192.061 140.538 193.136 139.35 194.415 138.474C197.227 136.535 200.989 136.275 204.212 137.388C207.436 138.502 210.126 140.887 212.01 143.734C213.261 145.632 214.201 148.053 213.317 150.147C213.013 150.787 212.631 151.387 212.179 151.931L209.875 154.95C209.437 155.585 208.911 156.153 208.311 156.637C207.45 157.266 206.378 157.524 205.323 157.679C202.519 158.089 199.666 157.856 196.84 158.045C191.987 158.369 187.247 159.936 182.382 159.884C179.587 159.853 176.827 159.288 174.096 158.723L162.005 156.23C159.9 155.798 157.522 155.166 156.531 153.252C156.086 152.391 156.003 151.394 155.95 150.424C155.807 147.754 155.95 144.784 157.796 142.859C159.53 141.053 162.273 140.482 164.345 139.147C166.881 137.51 167.718 138.039 170.391 139.269C175.608 141.638 181.347 142.612 187.05 142.095V142.095Z" fill="#E0AB8B"/>
<path opacity="0.05" d="M187.05 142.095C188.296 141.978 189.559 141.782 190.68 141.228C192.061 140.538 193.136 139.35 194.415 138.474C197.227 136.535 200.989 136.275 204.212 137.388C207.436 138.502 210.126 140.887 212.01 143.734C213.261 145.632 214.201 148.053 213.317 150.147C213.013 150.787 212.631 151.387 212.179 151.931L209.875 154.95C209.437 155.585 208.911 156.153 208.311 156.637C207.45 157.266 206.378 157.524 205.323 157.679C202.519 158.089 199.666 157.856 196.84 158.045C191.987 158.369 187.247 159.936 182.382 159.884C179.587 159.853 176.827 159.288 174.096 158.723L162.005 156.23C159.9 155.798 157.522 155.166 156.531 153.252C156.086 152.391 156.003 151.394 155.95 150.424C155.807 147.754 155.95 144.784 157.796 142.859C159.53 141.053 162.273 140.482 164.345 139.147C166.881 137.51 167.718 138.039 170.391 139.269C175.608 141.638 181.347 142.612 187.05 142.095V142.095Z" fill="black"/>
<path d="M235.602 138.297C232.21 139.613 228.799 140.934 225.247 141.718C219.291 143.034 213.06 142.826 207.151 144.33C204.03 145.128 200.928 146.413 197.721 146.153C196.287 146.036 194.904 145.599 193.509 145.266C185.672 143.327 176.764 143.956 170.4 148.942C168.223 150.646 166.441 152.77 164.826 155.036C164.48 155.526 164.246 156.086 164.141 156.676C164.036 157.267 164.063 157.873 164.219 158.452C164.375 159.031 164.656 159.569 165.043 160.026C165.43 160.483 165.914 160.849 166.458 161.097C168.933 162.239 171.584 162.948 174.297 163.194C177.924 163.515 181.567 163 185.175 162.485C190.528 161.723 195.884 160.959 201.224 160.103C203.14 159.795 205.058 159.477 206.986 159.233C220.86 157.474 234.986 159.612 248.897 158.144C250.303 157.995 251.734 157.801 253.013 157.2C256.25 155.676 257.852 151.66 257.184 148.131C256.515 144.602 253.935 141.668 250.831 139.868C248.229 138.352 245.422 137.74 242.524 137.098C239.834 136.469 238.193 137.3 235.602 138.297Z" fill="#E0AB8B"/>
<path opacity="0.1" d="M265.36 117.2C266.89 119.211 267.216 121.909 267.05 124.427C266.885 126.945 266.288 129.436 266.2 131.965C266.078 135.433 266.912 138.89 266.771 142.347C266.672 144.765 266.1 147.136 265.423 149.457C264.625 152.197 263.471 155.142 260.949 156.457C257.601 158.205 250.579 157.222 247.057 158.59C247.378 156.588 250.449 153.687 250.77 151.685C250.991 150.3 251.214 148.876 250.977 147.488C250.673 145.718 249.637 144.147 248.408 142.84C246.452 140.76 243.9 139.194 241.096 138.685C238.293 138.175 231.429 138.593 229.186 140.369C228.909 138.535 234.047 136.768 235.854 136.372C236.754 136.17 237.787 136.283 238.508 135.71C239.889 134.624 238.887 132.46 238.953 130.724C239.005 129.339 239.812 128.07 239.975 126.685C240.251 124.469 238.809 122.211 239.376 120.037C239.585 119.234 240.052 118.527 240.375 117.763C241.359 115.422 240.928 112.752 240.403 110.264C240.077 108.702 239.76 106.94 240.627 105.608C241.431 104.364 243.712 108.793 245.173 108.588C249.999 107.91 254.366 104.322 258.264 107.259C260.25 108.754 260.509 110.306 261.302 112.441C262.073 114.475 264.07 115.516 265.36 117.2Z" fill="black"/>
<path d="M266.189 117.2C267.719 119.211 268.045 121.909 267.879 124.427C267.713 126.945 267.117 129.436 267.028 131.965C266.907 135.433 267.741 138.89 267.6 142.347C267.501 144.765 266.929 147.136 266.252 149.457C265.454 152.197 264.299 155.141 261.777 156.457C258.429 158.205 251.408 157.222 247.886 158.59C248.206 156.587 251.278 153.687 251.598 151.684C251.819 150.299 252.043 148.876 251.806 147.488C251.502 145.718 250.466 144.147 249.237 142.84C247.281 140.759 244.729 139.194 241.925 138.685C239.121 138.175 232.257 138.593 230.014 140.369C229.738 138.535 234.876 136.768 236.682 136.372C237.583 136.17 238.616 136.283 239.337 135.71C240.718 134.624 239.715 132.46 239.782 130.724C239.834 129.339 240.641 128.07 240.804 126.685C241.08 124.469 239.638 122.211 240.204 120.037C240.414 119.233 240.881 118.527 241.204 117.763C242.187 115.422 241.757 112.752 241.232 110.264C240.906 108.702 240.588 106.94 241.456 105.608C242.259 104.364 243.831 103.893 245.292 103.685C250.185 103.022 255.142 104.304 259.103 107.259C261.09 108.754 261.349 110.306 262.142 112.441C262.902 114.475 264.899 115.516 266.189 117.2Z" fill="#392D71"/>
<path d="M83.4196 104.076L98.4379 159.737C98.6221 160.419 99.0092 161.028 99.5476 161.484C100.086 161.94 100.75 162.221 101.451 162.288L169.049 168.801C169.6 168.854 170.155 168.774 170.669 168.568C171.183 168.361 171.64 168.034 172.002 167.614C172.364 167.195 172.62 166.694 172.75 166.154C172.879 165.614 172.877 165.052 172.745 164.513L156.298 97.3724C156.103 96.5744 155.631 95.8717 154.968 95.3894C154.304 94.9071 153.492 94.6763 152.674 94.7381L86.4939 99.702C85.9858 99.7416 85.4926 99.8932 85.0496 100.146C84.6066 100.399 84.2247 100.746 83.9311 101.164C83.6374 101.582 83.4393 102.059 83.3509 102.563C83.2625 103.066 83.2859 103.583 83.4196 104.076V104.076Z" fill="#9C9CA1"/>
<path d="M217.419 114.937C221.522 114.937 224.849 111.558 224.849 107.389C224.849 103.22 221.522 99.8405 217.419 99.8405C213.315 99.8405 209.988 103.22 209.988 107.389C209.988 111.558 213.315 114.937 217.419 114.937Z" fill="white"/>
<path d="M223.52 93.6189C223.52 93.6189 225.086 98.2892 220.465 100.253L219.874 101.289L222.769 104.153C222.769 104.153 226.338 97.6244 225.951 95.3059C225.951 95.3059 225.399 92.9514 223.52 93.6189Z" fill="white"/>
<path d="M218.272 114.937C222.229 114.937 225.437 111.72 225.437 107.752C225.437 103.783 222.229 100.566 218.272 100.566C214.315 100.566 211.107 103.783 211.107 107.752C211.107 111.72 214.315 114.937 218.272 114.937Z" fill="#233786"/>
<path d="M225.987 96.3669L224.849 94.4833L223.192 94.2478C223.545 88.0457 221.94 86.1981 221.94 86.1981L221.567 86.1621L219.943 86.0042L216.888 82.8242V81.9211C221.181 82.4336 223.553 84.4779 224.835 86.874C227.1 91.0789 225.987 96.3669 225.987 96.3669Z" fill="#233786"/>
<path opacity="0.1" d="M221.581 85.0207V86.162L219.957 86.0041L216.902 82.8241C216.902 82.8241 221.628 83.885 221.581 85.0207Z" fill="black" stroke="#4C4981" stroke-miterlimit="10"/>
<path opacity="0.1" d="M225.987 96.3668L224.849 94.4832V86.885C227.1 91.0788 225.987 96.3668 225.987 96.3668Z" fill="black" stroke="#4C4981" stroke-miterlimit="10"/>
<path d="M205.032 110.706C206.938 109.602 206.856 105.88 204.848 102.393C202.841 98.9059 199.668 96.9738 197.761 98.0776C195.855 99.1814 195.937 102.903 197.945 106.39C199.952 109.877 203.125 111.809 205.032 110.706Z" fill="white"/>
<path d="M202.472 103.782C204.48 107.27 206.944 109.599 205.038 110.707C203.132 111.815 197.58 111.261 195.572 107.771C193.564 104.281 195.387 99.4609 197.293 98.3529C199.199 97.2449 200.461 100.286 202.472 103.782Z" fill="#233786"/>
<path opacity="0.1" d="M220.352 78.658C220.352 89.8019 212.748 100.541 201.635 100.541C196.298 100.541 191.18 98.4153 187.406 94.6308C183.632 90.8464 181.512 85.7136 181.512 80.3616C181.512 75.0096 183.632 69.8768 187.406 66.0924C191.18 62.308 196.298 60.1819 201.635 60.1819C212.748 60.193 220.352 67.5114 220.352 78.658Z" fill="black"/>
<path d="M201.635 99.9984C212.749 99.9984 221.758 90.9636 221.758 79.8186C221.758 68.6737 212.749 59.6389 201.635 59.6389C190.521 59.6389 181.512 68.6737 181.512 79.8186C181.512 90.9636 190.521 99.9984 201.635 99.9984Z" fill="#E0AB8B"/>
<path d="M199.867 70.8769C202.262 71.7606 203.679 74.2425 205.828 75.6248C208.867 77.5638 212.822 77.0624 216.292 76.104C218.225 75.5749 220.247 74.9295 222.15 75.5167C222.43 75.641 222.739 75.6852 223.042 75.6442C223.457 75.5251 223.661 75.0652 223.797 74.6553C226.15 67.6194 225.092 59.65 221.54 53.1404C220.623 51.4617 219.523 49.8385 218.01 48.6723C216.816 47.7554 215.413 47.1543 213.999 46.6419C211.414 45.711 208.741 45.0492 206.021 44.6668C205.541 44.5793 205.051 44.5635 204.566 44.6198C203.9 44.7278 203.303 45.0879 202.71 45.4092C200.166 46.7765 197.345 47.5448 194.462 47.6557C190.594 47.8025 186.175 46.8884 183.194 49.3759C179.603 52.3592 180.498 58.1791 178.17 62.2289C176.629 64.9075 173.656 66.8521 173.167 69.9019C173.04 70.8341 173.099 71.7823 173.341 72.6913C174.48 77.3838 179.01 81.018 183.838 81.1039C184.579 81.1606 185.322 81.0081 185.981 80.6635C186.414 80.3678 186.795 80.0039 187.111 79.5859C190.274 75.8298 193.893 68.672 199.867 70.8769Z" fill="#444053"/>
<path opacity="0.1" d="M223.796 72.6138C223.661 73.0238 223.457 73.4836 223.042 73.6027C222.739 73.6437 222.43 73.5996 222.15 73.4753C220.247 72.8881 218.214 73.5335 216.294 74.0626C212.822 75.021 208.858 75.5335 205.831 73.5834C203.679 72.1983 202.265 69.7053 199.867 68.8355C193.892 66.6195 190.274 73.7883 187.103 77.5445C186.787 77.9625 186.405 78.3264 185.973 78.6221C185.314 78.9667 184.571 79.1192 183.83 79.0625C179.018 78.9766 174.485 75.3423 173.333 70.6499C173.27 70.3729 173.214 70.0959 173.173 69.8189C173.173 69.8438 173.173 69.866 173.159 69.8909C173.032 70.8231 173.091 71.7713 173.333 72.6803C174.471 77.3728 179.004 81.0071 183.83 81.0929C184.571 81.1497 185.314 80.9971 185.973 80.6525C186.405 80.3568 186.787 79.9929 187.103 79.5749C190.274 75.8188 193.892 68.661 199.867 70.866C202.265 71.7496 203.679 74.2315 205.831 75.6138C208.869 77.5528 212.822 77.0514 216.294 76.093C218.228 75.5639 220.247 74.9185 222.15 75.5058C222.43 75.6301 222.739 75.6742 223.042 75.6332C223.457 75.5141 223.661 75.0542 223.796 74.6443C224.746 71.7654 225.165 68.7374 225.034 65.7081C224.953 68.0575 224.536 70.3831 223.796 72.6138V72.6138Z" fill="black"/>
<path d="M83.5383 105.108L98.248 159.553C98.4285 160.22 98.8077 160.816 99.335 161.262C99.8624 161.708 100.513 161.982 101.2 162.048L167.409 168.418C167.409 168.192 167.139 168.394 167.642 168.192C168.146 167.99 167.966 167.923 168.321 167.512C168.675 167.102 168.42 167.587 168.547 167.059C168.673 166.532 168.045 167.986 168.773 166.38L125.145 161.262L111.45 137.634C111.45 137.634 103.208 124.212 102.408 124.273L86.5495 100.829C86.0518 100.868 85.5688 101.016 85.1348 101.263C84.7009 101.511 84.3268 101.851 84.0392 102.259C83.7516 102.668 83.5576 103.135 83.471 103.627C83.3844 104.12 83.4074 104.625 83.5383 105.108Z" fill="#080809" fill-opacity="0.2"/>
<path d="M128.086 131.665C128.086 134.252 125.878 136.35 123.155 136.35C120.431 136.35 118.224 134.252 118.224 131.665C118.224 129.078 120.431 126.98 123.155 126.98C125.231 130.624 127.048 128.542 128.086 131.665Z" fill="#342F2F"/>
<ellipse rx="0.779758" ry="1.81911" transform="matrix(0.683128 0.730299 -0.728372 0.685182 126.31 127.235)" fill="#262020"/>
</g>
<defs>
<clipPath id="clip0">
<rect width="316" height="171" fill="white"/>
</clipPath>
</defs>
</svg>
