<svg width="689" height="372" viewBox="0 0 689 372" fill="none" xmlns="http://www.w3.org/2000/svg">
<g id="undraw_developer_activity_bv83 1" clip-path="url(#clip0)">
<path id="Vector" opacity="0.1" d="M689 238.771C689.008 248.876 687.62 258.935 684.874 268.66C682.221 278.035 678.317 287.011 673.269 295.343C673.269 325.534 652.9 351.627 623.334 364.04C610.98 369.175 597.727 371.797 584.349 371.754H130.796C106.554 371.754 84.0893 365.209 65.6658 354.061C60.3931 350.885 55.3913 347.279 50.7114 343.28C30.2341 325.672 17.5382 301.339 17.5382 274.463C6.0457 256.757 -0.0481405 236.086 8.47809e-06 214.974C8.47809e-06 170.767 26.1326 132.754 63.5699 115.972C68.5412 113.744 73.6779 111.907 78.9339 110.476C80.7929 109.97 82.672 109.516 84.5711 109.114C89.6339 108.035 94.7691 107.331 99.9351 107.005C101.802 106.889 103.679 106.822 105.566 106.806H106.602C108.686 106.806 110.752 106.879 112.806 106.999L113.48 105.854C114.307 104.472 115.155 103.104 116.022 101.75C117.588 99.2837 119.23 96.8532 120.948 94.4589C122.747 91.9319 124.624 89.4452 126.58 86.9986L127.08 86.396C128.188 85.014 129.32 83.6481 130.476 82.2983C134.09 78.0841 137.904 73.9964 141.92 70.0353C185.349 27.4432 253.388 0.0246582 329.877 0.0246582C389.393 0.0246582 443.797 16.6264 485.468 44.057C501.255 35.1183 519.088 30.4281 537.227 30.4441C596.093 30.4441 643.829 78.8755 643.829 138.618C643.821 142.398 643.62 146.175 643.227 149.935C657.417 159.985 668.983 173.302 676.949 188.763C684.915 204.225 689.049 221.376 689 238.771Z" fill="#DC143C"/>
<path id="Vector_2" opacity="0.2" d="M141.932 70.0106V82.2736H130.488C134.074 78.0634 137.888 73.9758 141.932 70.0106Z" fill="#DC143C"/>
<path id="Vector_3" opacity="0.2" d="M162.933 66.9011H147.569V82.2736H162.933V66.9011Z" fill="#DC143C"/>
<path id="Vector_4" opacity="0.2" d="M183.928 66.9011H168.564V82.2736H183.928V66.9011Z" fill="#DC143C"/>
<path id="Vector_5" opacity="0.2" d="M204.929 66.9011H189.565V82.2736H204.929V66.9011Z" fill="#DC143C"/>
<path id="Vector_6" opacity="0.2" d="M225.925 66.9011H210.561V82.2736H225.925V66.9011Z" fill="#DC143C"/>
<path id="Vector_7" opacity="0.2" d="M246.926 66.9011H231.562V82.2736H246.926V66.9011Z" fill="#DC143C"/>
<path id="Vector_8" d="M267.927 66.9011H252.563V82.2736H267.927V66.9011Z" fill="#DC143C"/>
<path id="Vector_9" opacity="0.2" d="M288.922 66.9011H273.558V82.2736H288.922V66.9011Z" fill="#DC143C"/>
<path id="Vector_10" opacity="0.2" d="M309.924 66.9011H294.56V82.2736H309.924V66.9011Z" fill="#DC143C"/>
<path id="Vector_11" opacity="0.2" d="M330.919 66.9011H315.555V82.2736H330.919V66.9011Z" fill="#DC143C"/>
<path id="Vector_12" d="M351.92 66.9011H336.556V82.2736H351.92V66.9011Z" fill="#DC143C"/>
<path id="Vector_13" opacity="0.2" d="M372.921 66.9011H357.557V82.2736H372.921V66.9011Z" fill="#DC143C"/>
<path id="Vector_14" opacity="0.2" d="M393.916 66.9011H378.552V82.2736H393.916V66.9011Z" fill="#DC143C"/>
<path id="Vector_15" opacity="0.2" d="M414.918 66.9011H399.554V82.2736H414.918V66.9011Z" fill="#DC143C"/>
<path id="Vector_16" opacity="0.2" d="M435.919 66.9011H420.555V82.2736H435.919V66.9011Z" fill="#DC143C"/>
<path id="Vector_17" opacity="0.2" d="M456.914 66.9011H441.55V82.2736H456.914V66.9011Z" fill="#DC143C"/>
<path id="Vector_18" opacity="0.2" d="M477.915 66.9011H462.551V82.2736H477.915V66.9011Z" fill="#DC143C"/>
<path id="Vector_19" d="M498.911 66.9011H483.547V82.2736H498.911V66.9011Z" fill="#DC143C"/>
<path id="Vector_20" d="M519.912 66.9011H504.548V82.2736H519.912V66.9011Z" fill="#DC143C"/>
<path id="Vector_21" opacity="0.2" d="M540.913 66.9011H525.549V82.2736H540.913V66.9011Z" fill="#DC143C"/>
<path id="Vector_22" opacity="0.2" d="M561.908 66.9011H546.544V82.2736H561.908V66.9011Z" fill="#DC143C"/>
<path id="Vector_23" d="M582.91 66.9011H567.546V82.2736H582.91V66.9011Z" fill="#DC143C"/>
<path id="Vector_24" d="M603.905 66.9011H588.541V82.2736H603.905V66.9011Z" fill="#DC143C"/>
<path id="Vector_25" d="M120.936 94.4523V101.744H116.01C117.576 99.2611 119.218 96.8305 120.936 94.4523Z" fill="#DC143C"/>
<path id="Vector_26" opacity="0.2" d="M141.932 86.3713H126.568V101.744H141.932V86.3713Z" fill="#DC143C"/>
<path id="Vector_27" d="M162.933 86.3713H147.569V101.744H162.933V86.3713Z" fill="#DC143C"/>
<path id="Vector_28" opacity="0.2" d="M183.928 86.3713H168.564V101.744H183.928V86.3713Z" fill="#DC143C"/>
<path id="Vector_29" opacity="0.7" d="M204.929 86.3713H189.565V101.744H204.929V86.3713Z" fill="#DC143C"/>
<path id="Vector_30" opacity="0.2" d="M225.925 86.3713H210.561V101.744H225.925V86.3713Z" fill="#DC143C"/>
<path id="Vector_31" opacity="0.4" d="M246.926 86.3713H231.562V101.744H246.926V86.3713Z" fill="#DC143C"/>
<path id="Vector_32" d="M267.927 86.3713H252.563V101.744H267.927V86.3713Z" fill="#DC143C"/>
<path id="Vector_33" opacity="0.4" d="M288.922 86.3713H273.558V101.744H288.922V86.3713Z" fill="#DC143C"/>
<path id="Vector_34" opacity="0.2" d="M309.924 86.3713H294.56V101.744H309.924V86.3713Z" fill="#DC143C"/>
<path id="Vector_35" opacity="0.4" d="M330.919 86.3713H315.555V101.744H330.919V86.3713Z" fill="#DC143C"/>
<path id="Vector_36" d="M351.92 86.3713H336.556V101.744H351.92V86.3713Z" fill="#DC143C"/>
<path id="Vector_37" opacity="0.4" d="M372.921 86.3713H357.557V101.744H372.921V86.3713Z" fill="#DC143C"/>
<path id="Vector_38" opacity="0.4" d="M393.916 86.3713H378.552V101.744H393.916V86.3713Z" fill="#DC143C"/>
<path id="Vector_39" opacity="0.2" d="M414.918 86.3713H399.554V101.744H414.918V86.3713Z" fill="#DC143C"/>
<path id="Vector_40" opacity="0.4" d="M435.919 86.3713H420.555V101.744H435.919V86.3713Z" fill="#DC143C"/>
<path id="Vector_41" opacity="0.4" d="M456.914 86.3713H441.55V101.744H456.914V86.3713Z" fill="#DC143C"/>
<path id="Vector_42" opacity="0.2" d="M477.915 86.3713H462.551V101.744H477.915V86.3713Z" fill="#DC143C"/>
<path id="Vector_43" opacity="0.2" d="M498.911 86.3713H483.547V101.744H498.911V86.3713Z" fill="#DC143C"/>
<path id="Vector_44" opacity="0.4" d="M519.912 86.3713H504.548V101.744H519.912V86.3713Z" fill="#DC143C"/>
<path id="Vector_45" opacity="0.2" d="M540.913 86.3713H525.549V101.744H540.913V86.3713Z" fill="#DC143C"/>
<path id="Vector_46" d="M561.908 86.3713H546.544V101.744H561.908V86.3713Z" fill="#DC143C"/>
<path id="Vector_47" d="M582.91 86.3713H567.546V101.744H582.91V86.3713Z" fill="#DC143C"/>
<path id="Vector_48" d="M603.905 86.3713H588.541V101.744H603.905V86.3713Z" fill="#DC143C"/>
<path id="Vector_49" opacity="0.2" d="M78.9338 110.476V121.22H63.5699V115.971C68.5411 113.744 73.6779 111.906 78.9338 110.476Z" fill="#DC143C"/>
<path id="Vector_50" opacity="0.2" d="M99.9351 107.005V121.22H84.5711V109.114L99.9351 107.005Z" fill="#DC143C"/>
<path id="Vector_51" d="M120.93 105.848H105.566V121.22H120.93V105.848Z" fill="#DC143C"/>
<path id="Vector_52" opacity="0.7" d="M141.932 105.848H126.568V121.22H141.932V105.848Z" fill="#DC143C"/>
<path id="Vector_53" d="M162.933 105.848H147.569V121.22H162.933V105.848Z" fill="#DC143C"/>
<path id="Vector_54" opacity="0.7" d="M183.928 105.848H168.564V121.22H183.928V105.848Z" fill="#DC143C"/>
<path id="Vector_55" opacity="0.7" d="M204.929 105.848H189.565V121.22H204.929V105.848Z" fill="#DC143C"/>
<path id="Vector_56" opacity="0.2" d="M225.925 105.848H210.561V121.22H225.925V105.848Z" fill="#DC143C"/>
<path id="Vector_57" opacity="0.4" d="M246.926 105.848H231.562V121.22H246.926V105.848Z" fill="#DC143C"/>
<path id="Vector_58" opacity="0.4" d="M267.927 105.848H252.563V121.22H267.927V105.848Z" fill="#DC143C"/>
<path id="Vector_59" d="M288.922 105.848H273.558V121.22H288.922V105.848Z" fill="#DC143C"/>
<path id="Vector_60" opacity="0.2" d="M309.924 105.848H294.56V121.22H309.924V105.848Z" fill="#DC143C"/>
<path id="Vector_61" opacity="0.4" d="M330.919 105.848H315.555V121.22H330.919V105.848Z" fill="#DC143C"/>
<path id="Vector_62" d="M351.92 105.848H336.556V121.22H351.92V105.848Z" fill="#DC143C"/>
<path id="Vector_63" opacity="0.2" d="M372.921 105.848H357.557V121.22H372.921V105.848Z" fill="#DC143C"/>
<path id="Vector_64" opacity="0.4" d="M393.916 105.848H378.552V121.22H393.916V105.848Z" fill="#DC143C"/>
<path id="Vector_65" opacity="0.2" d="M414.918 105.848H399.554V121.22H414.918V105.848Z" fill="#DC143C"/>
<path id="Vector_66" d="M435.919 105.848H420.555V121.22H435.919V105.848Z" fill="#DC143C"/>
<path id="Vector_67" opacity="0.2" d="M456.914 105.848H441.55V121.22H456.914V105.848Z" fill="#DC143C"/>
<path id="Vector_68" opacity="0.7" d="M477.915 105.848H462.551V121.22H477.915V105.848Z" fill="#DC143C"/>
<path id="Vector_69" opacity="0.7" d="M498.911 105.848H483.547V121.22H498.911V105.848Z" fill="#DC143C"/>
<path id="Vector_70" opacity="0.4" d="M519.912 105.848H504.548V121.22H519.912V105.848Z" fill="#DC143C"/>
<path id="Vector_71" opacity="0.2" d="M540.913 105.848H525.549V121.22H540.913V105.848Z" fill="#DC143C"/>
<path id="Vector_72" d="M561.908 105.848H546.544V121.22H561.908V105.848Z" fill="#DC143C"/>
<path id="Vector_73" d="M582.91 105.848H567.546V121.22H582.91V105.848Z" fill="#DC143C"/>
<path id="Vector_74" d="M603.905 105.848H588.541V121.22H603.905V105.848Z" fill="#DC143C"/>
<path id="Vector_75" opacity="0.2" d="M78.9338 125.318H63.5699V140.69H78.9338V125.318Z" fill="#DC143C"/>
<path id="Vector_76" opacity="0.2" d="M99.9351 125.318H84.5711V140.69H99.9351V125.318Z" fill="#DC143C"/>
<path id="Vector_77" opacity="0.2" d="M120.93 125.318H105.566V140.69H120.93V125.318Z" fill="#DC143C"/>
<path id="Vector_78" opacity="0.2" d="M141.932 125.318H126.568V140.69H141.932V125.318Z" fill="#DC143C"/>
<path id="Vector_79" d="M162.933 125.318H147.569V140.69H162.933V125.318Z" fill="#DC143C"/>
<path id="Vector_80" opacity="0.7" d="M183.928 125.318H168.564V140.69H183.928V125.318Z" fill="#DC143C"/>
<path id="Vector_81" opacity="0.7" d="M204.929 125.318H189.565V140.69H204.929V125.318Z" fill="#DC143C"/>
<path id="Vector_82" opacity="0.2" d="M225.925 125.318H210.561V140.69H225.925V125.318Z" fill="#DC143C"/>
<path id="Vector_83" opacity="0.2" d="M246.926 125.318H231.562V140.69H246.926V125.318Z" fill="#DC143C"/>
<path id="Vector_84" opacity="0.4" d="M267.927 125.318H252.563V140.69H267.927V125.318Z" fill="#DC143C"/>
<path id="Vector_85" opacity="0.4" d="M288.922 125.318H273.558V140.69H288.922V125.318Z" fill="#DC143C"/>
<path id="Vector_86" d="M309.924 125.318H294.56V140.69H309.924V125.318Z" fill="#DC143C"/>
<path id="Vector_87" opacity="0.2" d="M330.919 125.318H315.555V140.69H330.919V125.318Z" fill="#DC143C"/>
<path id="Vector_88" opacity="0.4" d="M351.92 125.318H336.556V140.69H351.92V125.318Z" fill="#DC143C"/>
<path id="Vector_89" opacity="0.4" d="M372.921 125.318H357.557V140.69H372.921V125.318Z" fill="#DC143C"/>
<path id="Vector_90" opacity="0.4" d="M393.916 125.318H378.552V140.69H393.916V125.318Z" fill="#DC143C"/>
<path id="Vector_91" opacity="0.4" d="M414.918 125.318H399.554V140.69H414.918V125.318Z" fill="#DC143C"/>
<path id="Vector_92" opacity="0.2" d="M435.919 125.318H420.555V140.69H435.919V125.318Z" fill="#DC143C"/>
<path id="Vector_93" opacity="0.2" d="M456.914 125.318H441.55V140.69H456.914V125.318Z" fill="#DC143C"/>
<path id="Vector_94" opacity="0.2" d="M477.915 125.318H462.551V140.69H477.915V125.318Z" fill="#DC143C"/>
<path id="Vector_95" opacity="0.2" d="M498.911 125.318H483.547V140.69H498.911V125.318Z" fill="#DC143C"/>
<path id="Vector_96" opacity="0.7" d="M519.912 125.318H504.548V140.69H519.912V125.318Z" fill="#DC143C"/>
<path id="Vector_97" opacity="0.7" d="M540.913 125.318H525.549V140.69H540.913V125.318Z" fill="#DC143C"/>
<path id="Vector_98" opacity="0.4" d="M561.908 125.318H546.544V140.69H561.908V125.318Z" fill="#DC143C"/>
<path id="Vector_99" opacity="0.2" d="M582.91 125.318H567.546V140.69H582.91V125.318Z" fill="#DC143C"/>
<path id="Vector_100" d="M603.905 125.318H588.541V140.69H603.905V125.318Z" fill="#DC143C"/>
<path id="Vector_101" opacity="0.2" d="M78.9338 144.794H63.5699V160.166H78.9338V144.794Z" fill="#DC143C"/>
<path id="Vector_102" opacity="0.2" d="M99.9351 144.794H84.5711V160.166H99.9351V144.794Z" fill="#DC143C"/>
<path id="Vector_103" opacity="0.4" d="M120.93 144.794H105.566V160.166H120.93V144.794Z" fill="#DC143C"/>
<path id="Vector_104" opacity="0.2" d="M141.932 144.794H126.568V160.166H141.932V144.794Z" fill="#DC143C"/>
<path id="Vector_105" opacity="0.2" d="M162.933 144.794H147.569V160.166H162.933V144.794Z" fill="#DC143C"/>
<path id="Vector_106" opacity="0.7" d="M183.928 144.794H168.564V160.166H183.928V144.794Z" fill="#DC143C"/>
<path id="Vector_107" opacity="0.7" d="M204.929 144.794H189.565V160.166H204.929V144.794Z" fill="#DC143C"/>
<path id="Vector_108" opacity="0.2" d="M225.925 144.794H210.561V160.166H225.925V144.794Z" fill="#DC143C"/>
<path id="Vector_109" opacity="0.2" d="M246.926 144.794H231.562V160.166H246.926V144.794Z" fill="#DC143C"/>
<path id="Vector_110" opacity="0.4" d="M267.927 144.794H252.563V160.166H267.927V144.794Z" fill="#DC143C"/>
<path id="Vector_111" d="M288.922 144.794H273.558V160.166H288.922V144.794Z" fill="#DC143C"/>
<path id="Vector_112" opacity="0.2" d="M309.924 144.794H294.56V160.166H309.924V144.794Z" fill="#DC143C"/>
<path id="Vector_113" d="M330.919 144.794H315.555V160.166H330.919V144.794Z" fill="#DC143C"/>
<path id="Vector_114" d="M351.92 144.794H336.556V160.166H351.92V144.794Z" fill="#DC143C"/>
<path id="Vector_115" d="M372.921 144.794H357.557V160.166H372.921V144.794Z" fill="#DC143C"/>
<path id="Vector_116" opacity="0.2" d="M393.916 144.794H378.552V160.166H393.916V144.794Z" fill="#DC143C"/>
<path id="Vector_117" d="M414.918 144.794H399.554V160.166H414.918V144.794Z" fill="#DC143C"/>
<path id="Vector_118" opacity="0.2" d="M435.919 144.794H420.555V160.166H435.919V144.794Z" fill="#DC143C"/>
<path id="Vector_119" opacity="0.2" d="M456.914 144.794H441.55V160.166H456.914V144.794Z" fill="#DC143C"/>
<path id="Vector_120" opacity="0.2" d="M477.915 144.794H462.551V160.166H477.915V144.794Z" fill="#DC143C"/>
<path id="Vector_121" opacity="0.2" d="M498.911 144.794H483.547V160.166H498.911V144.794Z" fill="#DC143C"/>
<path id="Vector_122" opacity="0.2" d="M519.912 144.794H504.548V160.166H519.912V144.794Z" fill="#DC143C"/>
<path id="Vector_123" opacity="0.7" d="M540.913 144.794H525.549V160.166H540.913V144.794Z" fill="#DC143C"/>
<path id="Vector_124" opacity="0.2" d="M561.908 144.794H546.544V160.166H561.908V144.794Z" fill="#DC143C"/>
<path id="Vector_125" opacity="0.2" d="M582.91 144.794H567.546V160.166H582.91V144.794Z" fill="#DC143C"/>
<path id="Vector_126" d="M603.905 144.794H588.541V160.166H603.905V144.794Z" fill="#DC143C"/>
<path id="Vector_127" opacity="0.2" d="M78.9338 164.264H63.5699V179.636H78.9338V164.264Z" fill="#DC143C"/>
<path id="Vector_128" opacity="0.2" d="M99.9351 164.264H84.5711V179.636H99.9351V164.264Z" fill="#DC143C"/>
<path id="Vector_129" opacity="0.2" d="M120.93 164.264H105.566V179.636H120.93V164.264Z" fill="#DC143C"/>
<path id="Vector_130" opacity="0.4" d="M141.932 164.264H126.568V179.636H141.932V164.264Z" fill="#DC143C"/>
<path id="Vector_131" opacity="0.2" d="M162.933 164.264H147.569V179.636H162.933V164.264Z" fill="#DC143C"/>
<path id="Vector_132" opacity="0.2" d="M183.928 164.264H168.564V179.636H183.928V164.264Z" fill="#DC143C"/>
<path id="Vector_133" opacity="0.7" d="M204.929 164.264H189.565V179.636H204.929V164.264Z" fill="#DC143C"/>
<path id="Vector_134" opacity="0.2" d="M225.925 164.264H210.561V179.636H225.925V164.264Z" fill="#DC143C"/>
<path id="Vector_135" opacity="0.2" d="M246.926 164.264H231.562V179.636H246.926V164.264Z" fill="#DC143C"/>
<path id="Vector_136" opacity="0.2" d="M267.927 164.264H252.563V179.636H267.927V164.264Z" fill="#DC143C"/>
<path id="Vector_137" d="M288.922 164.264H273.558V179.636H288.922V164.264Z" fill="#DC143C"/>
<path id="Vector_138" opacity="0.2" d="M309.924 164.264H294.56V179.636H309.924V164.264Z" fill="#DC143C"/>
<path id="Vector_139" d="M330.919 164.264H315.555V179.636H330.919V164.264Z" fill="#DC143C"/>
<path id="Vector_140" d="M351.92 164.264H336.556V179.636H351.92V164.264Z" fill="#DC143C"/>
<path id="Vector_141" opacity="0.2" d="M372.921 164.264H357.557V179.636H372.921V164.264Z" fill="#DC143C"/>
<path id="Vector_142" opacity="0.2" d="M393.916 164.264H378.552V179.636H393.916V164.264Z" fill="#DC143C"/>
<path id="Vector_143" opacity="0.2" d="M414.918 164.264H399.554V179.636H414.918V164.264Z" fill="#DC143C"/>
<path id="Vector_144" opacity="0.2" d="M435.919 164.264H420.555V179.636H435.919V164.264Z" fill="#DC143C"/>
<path id="Vector_145" opacity="0.2" d="M456.914 164.264H441.55V179.636H456.914V164.264Z" fill="#DC143C"/>
<path id="Vector_146" opacity="0.2" d="M477.915 164.264H462.551V179.636H477.915V164.264Z" fill="#DC143C"/>
<path id="Vector_147" opacity="0.2" d="M498.911 164.264H483.547V179.636H498.911V164.264Z" fill="#DC143C"/>
<path id="Vector_148" opacity="0.2" d="M519.912 164.264H504.548V179.636H519.912V164.264Z" fill="#DC143C"/>
<path id="Vector_149" opacity="0.2" d="M540.913 164.264H525.549V179.636H540.913V164.264Z" fill="#DC143C"/>
<path id="Vector_150" opacity="0.2" d="M561.908 164.264H546.544V179.636H561.908V164.264Z" fill="#DC143C"/>
<path id="Vector_151" opacity="0.4" d="M582.91 164.264H567.546V179.636H582.91V164.264Z" fill="#DC143C"/>
<path id="Vector_152" d="M603.905 164.264H588.541V179.636H603.905V164.264Z" fill="#DC143C"/>
<path id="Vector_153" opacity="0.7" d="M78.9338 183.74H63.5699V199.113H78.9338V183.74Z" fill="#DC143C"/>
<path id="Vector_154" opacity="0.7" d="M99.9351 183.74H84.5711V199.113H99.9351V183.74Z" fill="#DC143C"/>
<path id="Vector_155" opacity="0.7" d="M120.93 183.74H105.566V199.113H120.93V183.74Z" fill="#DC143C"/>
<path id="Vector_156" opacity="0.7" d="M141.932 183.74H126.568V199.113H141.932V183.74Z" fill="#DC143C"/>
<path id="Vector_157" opacity="0.7" d="M162.933 183.74H147.569V199.113H162.933V183.74Z" fill="#DC143C"/>
<path id="Vector_158" opacity="0.2" d="M183.928 183.74H168.564V199.113H183.928V183.74Z" fill="#DC143C"/>
<path id="Vector_159" opacity="0.2" d="M204.929 183.74H189.565V199.113H204.929V183.74Z" fill="#DC143C"/>
<path id="Vector_160" opacity="0.2" d="M225.925 183.74H210.561V199.113H225.925V183.74Z" fill="#DC143C"/>
<path id="Vector_161" opacity="0.2" d="M246.926 183.74H231.562V199.113H246.926V183.74Z" fill="#DC143C"/>
<path id="Vector_162" opacity="0.2" d="M267.927 183.74H252.563V199.113H267.927V183.74Z" fill="#DC143C"/>
<path id="Vector_163" opacity="0.2" d="M288.922 183.74H273.558V199.113H288.922V183.74Z" fill="#DC143C"/>
<path id="Vector_164" d="M309.924 183.74H294.56V199.113H309.924V183.74Z" fill="#DC143C"/>
<path id="Vector_165" opacity="0.2" d="M330.919 183.74H315.555V199.113H330.919V183.74Z" fill="#DC143C"/>
<path id="Vector_166" opacity="0.2" d="M351.92 183.74H336.556V199.113H351.92V183.74Z" fill="#DC143C"/>
<path id="Vector_167" opacity="0.2" d="M372.921 183.74H357.557V199.113H372.921V183.74Z" fill="#DC143C"/>
<path id="Vector_168" d="M393.916 183.74H378.552V199.113H393.916V183.74Z" fill="#DC143C"/>
<path id="Vector_169" opacity="0.2" d="M414.918 183.74H399.554V199.113H414.918V183.74Z" fill="#DC143C"/>
<path id="Vector_170" opacity="0.2" d="M435.919 183.74H420.555V199.113H435.919V183.74Z" fill="#DC143C"/>
<path id="Vector_171" opacity="0.2" d="M456.914 183.74H441.55V199.113H456.914V183.74Z" fill="#DC143C"/>
<path id="Vector_172" opacity="0.2" d="M477.915 183.74H462.551V199.113H477.915V183.74Z" fill="#DC143C"/>
<path id="Vector_173" opacity="0.2" d="M498.911 183.74H483.547V199.113H498.911V183.74Z" fill="#DC143C"/>
<path id="Vector_174" opacity="0.2" d="M519.912 183.74H504.548V199.113H519.912V183.74Z" fill="#DC143C"/>
<path id="Vector_175" opacity="0.2" d="M540.913 183.74H525.549V199.113H540.913V183.74Z" fill="#DC143C"/>
<path id="Vector_176" opacity="0.2" d="M561.908 183.74H546.544V199.113H561.908V183.74Z" fill="#DC143C"/>
<path id="Vector_177" opacity="0.2" d="M582.91 183.74H567.546V199.113H582.91V183.74Z" fill="#DC143C"/>
<path id="Vector_178" d="M603.905 183.74H588.541V199.113H603.905V183.74Z" fill="#DC143C"/>
<path id="Vector_179" d="M442.381 240.295C453.98 240.295 463.383 230.887 463.383 219.282C463.383 207.677 453.98 198.269 442.381 198.269C430.783 198.269 421.38 207.677 421.38 219.282C421.38 230.887 430.783 240.295 442.381 240.295Z" fill="#767D9F"/>
<path id="Vector_180" d="M441.291 192.55C443.387 201.702 445.166 210.922 446.627 220.21C447.067 222.97 447.459 225.88 446.459 228.49C445.622 230.665 443.917 232.364 442.58 234.269C441.243 236.173 440.231 238.613 441.044 240.795C441.857 242.976 444.23 244.17 446.495 244.784C452.975 246.532 459.883 245.26 466.334 243.368C469.254 242.616 472.054 241.455 474.651 239.921C477.385 238.186 479.626 235.775 481.686 233.292C491.087 221.885 497.242 208.194 503.036 194.587C499.313 194.926 495.563 194.374 492.096 192.976C488.628 191.578 485.543 189.375 483.095 186.548C480.722 183.758 478.981 179.872 480.319 176.461C476.398 178.612 471.742 178.757 467.52 180.227C464.902 181.228 462.382 182.468 459.992 183.933C457.109 185.6 454.242 187.3 451.391 189.031C448.133 190.996 445.08 192.743 441.291 192.55Z" fill="#E0AB8B"/>
<path id="Vector_181" d="M485.215 208.327C481.535 215.491 476.747 222.379 469.911 226.646C463.075 230.912 453.873 232.069 447.025 227.851C443.652 225.79 441.099 222.656 438.153 220.017C435.208 217.378 431.528 215.118 427.572 215.461C423.211 215.841 419.796 219.246 416.875 222.506C412.442 227.459 408.16 232.624 405.022 238.487C399 249.756 397.572 262.929 397.837 275.704C398.102 288.479 399.951 301.188 399.993 313.963C400.054 329.679 397.392 345.268 394.699 360.749C419.453 357.7 444.236 364.365 469.044 366.89C484.92 368.523 500.916 368.487 516.877 368.445C519.683 368.445 522.67 368.372 525.007 366.818C526.436 365.775 527.591 364.402 528.374 362.816C530.578 358.749 531.464 354.109 532.078 349.523C533.638 337.941 533.686 326.214 533.728 314.524C533.837 286.201 533.939 257.776 530.343 229.677C529.458 222.765 528.326 215.817 525.676 209.351C523.026 202.885 518.701 196.937 512.655 193.472C508.77 191.243 499.766 187.362 495.189 189.61C490.051 192.116 487.678 203.53 485.215 208.327Z" fill="#767D9F"/>
<path id="Vector_182" d="M487.046 288.304C486.112 270.829 482.312 252.178 490.401 236.667C492.388 232.859 485.257 228.104 487.461 224.416C490.152 219.92 492.191 215.065 493.52 209.996C493.978 208.254 494.345 206.41 493.912 204.663C493.111 201.475 489.961 199.577 487.287 197.636C484.336 195.491 482.818 188.953 481.866 185.415C480.915 181.878 489.437 186.139 492.864 184.879C497.622 183.138 503.669 184.234 508.414 186C511.064 186.976 513.943 187.061 516.768 187.133C522.255 187.278 527.76 187.416 533.204 186.741C535.649 186.434 538.101 185.97 540.558 186.108C546.827 186.464 552.278 190.755 555.988 195.828C559.698 200.902 562.059 206.814 565.1 212.31C567.636 216.889 570.659 221.216 572.822 225.983C574.737 230.201 575.947 234.733 577.146 239.24L580.236 250.804C580.776 252.458 581.033 254.192 580.994 255.932C580.838 257.782 580.019 259.506 579.188 261.151C576.045 267.248 572.276 273.002 567.943 278.319C561.445 286.291 553.555 293.481 549.694 303.026C548.189 306.744 547.351 310.697 546.587 314.638C543.503 330.4 541.311 346.324 540.022 362.334C532.984 359.076 525.608 356.608 518.027 354.976C514.248 354.167 510.428 353.564 506.584 353.169C503.217 352.819 498.875 353.482 495.67 352.566C490.31 351.041 489.72 341.972 488.907 337.224C487.606 329.661 487.347 321.966 487.299 314.325C487.239 305.635 487.51 296.964 487.046 288.304Z" fill="#4C4981"/>
<path id="Vector_183" d="M369.332 255.625C371.867 270.087 374.662 284.592 380.173 298.181C380.034 298.313 379.896 298.434 379.757 298.555C379.269 298.97 378.763 299.362 378.233 299.76C376.999 300.627 375.643 301.363 374.62 302.496C374.232 302.929 373.926 303.429 373.716 303.972C373.527 304.396 373.429 304.855 373.429 305.319C373.429 305.783 373.527 306.242 373.716 306.666C370.843 307.937 367.507 307.545 364.285 307.425C361.508 307.322 358.816 307.425 356.588 308.949C353.492 311.083 352.558 315.18 352.058 318.904C351.874 320.262 351.715 321.622 351.583 322.984C351.454 324.25 351.35 325.519 351.269 326.793C350.996 331.005 350.958 335.23 351.155 339.447C351.187 340.219 351.229 340.99 351.282 341.761C341.44 341.526 332.473 336.392 323.987 331.402C322.047 330.264 320.048 329.064 318.789 327.184C317.629 325.338 317.138 323.149 317.398 320.983C317.398 320.676 317.452 320.381 317.494 320.067C317.764 318.279 318.226 316.526 318.873 314.837C321.528 307.644 325.442 300.982 330.431 295.162C332.587 292.643 335.014 290.178 336.02 287.015C336.46 285.635 336.622 284.17 337.068 282.796C339.067 276.843 346.283 274.028 348.752 268.249C349.354 266.87 349.631 265.357 350.378 264.031C351.05 262.929 351.918 261.959 352.938 261.169C353.377 260.801 353.835 260.446 354.287 260.09C358.519 256.772 362.596 253.267 366.519 249.575C367.25 248.888 367.973 248.193 368.687 247.49C368.592 250.217 368.808 252.947 369.332 255.625Z" fill="#4C4981"/>
<path id="Vector_184" d="M430.023 212.852C429.155 213.768 428.216 214.63 427.294 215.485L427.047 215.708L426.072 216.612C424.301 218.142 422.768 219.927 421.525 221.909L421.422 222.078C418.351 227.58 419.489 234.353 420.344 240.602C421.405 248.389 421.882 256.245 421.772 264.104C421.615 274.95 420.338 285.725 420.314 296.56C420.314 299.018 420.368 301.471 420.477 303.93C420.651 307.925 420.952 311.914 421.314 315.903C421.705 320.278 422.175 324.647 422.615 329.016C422.964 332.397 423.295 335.771 423.572 339.146C423.711 340.893 423.843 342.635 423.952 344.383C424.078 346.431 424.181 348.486 424.241 350.535C424.283 351.837 424.307 353.132 424.307 354.434C424.307 355.175 424.307 355.91 424.307 356.646C424.307 358.056 424.269 359.462 424.193 360.864C424.112 362.668 423.99 364.475 423.825 366.287C423.639 368.258 423.307 370.409 421.922 371.795C421.838 371.879 421.747 371.958 421.657 372.036L419.706 371.795C406.254 370.184 392.674 369.941 379.173 371.072C379.468 369.035 379.739 367.004 380.004 364.962C380.124 363.997 380.245 363.027 380.359 362.057C380.492 360.948 380.618 359.839 380.739 358.731C380.877 357.525 381.004 356.32 381.124 355.115C381.437 352.01 381.712 348.902 381.949 345.793C382.299 341.257 382.564 336.713 382.744 332.162C382.833 329.988 382.901 327.813 382.949 325.636C383.017 322.936 383.049 320.234 383.045 317.531C383.045 314.903 383.023 312.272 382.979 309.636C382.979 308.769 382.943 307.901 382.871 307.039C382.819 306.263 382.712 305.492 382.552 304.731C382.104 302.977 381.5 301.267 380.745 299.621C380.612 299.308 380.486 299.018 380.359 298.687C380.287 298.524 380.221 298.356 380.155 298.193C383.624 295.102 386.093 290.962 388.466 286.888C392.314 280.326 396.253 273.474 396.898 265.893C397.542 258.313 393.778 249.798 386.539 247.484C384.569 246.881 382.485 246.712 380.456 246.357C378.54 246.019 374.547 245.254 372.331 243.88C371.127 245.118 369.922 246.333 368.717 247.526C368.79 245.705 369.235 243.919 370.024 242.277L370.88 242.319C370.81 242.126 370.777 241.922 370.783 241.717C370.783 241.072 371.229 240.343 372.181 239.535C375.017 237.125 379.48 236.589 381.269 233.329C382.016 231.973 382.142 230.358 382.744 228.936C384.473 224.88 389.436 223.386 392.423 220.144C395.41 216.902 396.157 212.31 398.572 208.694C400.376 206.054 402.878 203.967 405.799 202.668C406.04 202.554 406.287 202.439 406.534 202.337C411.533 200.197 417.471 199.709 422.651 199.721C424.663 199.721 429.878 199.782 432.432 200.8C432.846 200.948 433.225 201.18 433.546 201.481C436.268 204.446 432.034 210.707 430.023 212.852Z" fill="#4C4981"/>
<path id="Vector_185" d="M370.229 241.855C374.882 240.454 379.766 239.992 384.599 240.496C389.431 240.999 394.116 242.459 398.379 244.79C402.716 247.201 406.606 250.563 408.991 254.902C412.575 261.41 412.418 269.256 412.165 276.686C412.039 280.404 411.876 284.255 410.238 287.593C408.341 291.456 404.763 294.107 401.114 296.277C398.827 297.736 396.322 298.821 393.694 299.489C389.646 300.368 385.443 299.621 381.365 298.886C376.932 298.066 372.174 297.078 369.097 293.776C367.29 291.86 366.302 289.371 365.327 286.936C363.925 283.421 362.52 279.91 361.111 276.403C358.671 270.31 357.846 265.243 361.069 259.307C362.532 256.601 364.321 254.07 365.766 251.346C366.489 249.96 369.079 242.211 370.229 241.855Z" fill="#4C4981"/>
<path id="Vector_186" d="M623.352 346.028V364.046C610.998 369.181 597.745 371.803 584.367 371.759H421.94C421.856 371.843 421.766 371.922 421.675 372L419.724 371.759H130.796C106.554 371.759 84.0893 365.215 65.6658 354.067V326.558L204.622 310.51H204.731L285.652 317.368L306.593 319.176L317.47 320.098L339.983 322.008L351.565 322.99L368.428 324.424L370.801 324.623L382.955 325.654L399.445 327.01L422.633 328.974L461.287 332.258L488.479 334.566L533.132 338.357L541.624 339.074L542.539 339.152L543.334 339.218L554.549 340.17L566.859 341.219L568.287 341.34L623.352 346.028Z" fill="#504F60"/>
<path id="Vector_187" d="M460.136 345.365L285.995 315.626L279.244 349.788L359.069 359.351L383.648 362.431L451.259 349.107L460.136 345.365Z" fill="#9C9CA1"/>
<path id="Vector_188" d="M369.994 360.719L457.239 344.31C457.676 344.227 458.125 344.241 458.556 344.352C458.986 344.462 459.387 344.667 459.729 344.951C460.071 345.235 460.346 345.591 460.534 345.994C460.722 346.397 460.819 346.837 460.817 347.281C460.819 347.987 460.573 348.67 460.123 349.213C459.673 349.756 459.047 350.124 458.354 350.252L373.15 366.215L369.994 360.719Z" fill="#9C9CA1"/>
<path id="Vector_189" d="M407.841 309.118C410.557 308.865 413.31 308.437 415.755 307.232C418.766 305.731 421.109 303.146 423.898 301.242C430.029 297.024 438.232 296.457 445.26 298.88C452.289 301.302 458.155 306.491 462.262 312.686C464.991 316.813 467.038 322.08 465.111 326.636C464.45 328.028 463.616 329.332 462.63 330.517L457.607 337.085C456.653 338.466 455.505 339.702 454.198 340.755C452.319 342.123 449.982 342.683 447.681 343.021C441.568 343.913 435.347 343.406 429.186 343.816C418.604 344.521 408.269 347.932 397.663 347.817C391.568 347.751 385.551 346.522 379.594 345.293L353.233 339.869C348.644 338.929 343.458 337.555 341.296 333.391C340.326 331.517 340.146 329.348 340.031 327.238C339.718 321.429 340.031 314.969 344.054 310.781C347.837 306.852 353.817 305.611 358.334 302.706C363.863 299.145 365.688 300.296 371.518 302.972C382.892 308.125 395.406 310.243 407.841 309.118Z" fill="#E0AB8B"/>
<path id="Vector_190" opacity="0.05" d="M407.841 309.118C410.557 308.865 413.31 308.437 415.755 307.232C418.766 305.731 421.109 303.146 423.898 301.242C430.029 297.024 438.232 296.457 445.26 298.88C452.289 301.302 458.155 306.491 462.262 312.686C464.991 316.813 467.038 322.08 465.111 326.636C464.45 328.028 463.616 329.332 462.63 330.517L457.607 337.085C456.653 338.466 455.505 339.702 454.198 340.755C452.319 342.123 449.982 342.683 447.681 343.021C441.568 343.913 435.347 343.406 429.186 343.816C418.604 344.521 408.269 347.932 397.663 347.817C391.568 347.751 385.551 346.522 379.594 345.293L353.233 339.869C348.644 338.929 343.458 337.555 341.296 333.391C340.326 331.517 340.146 329.348 340.031 327.238C339.718 321.429 340.031 314.969 344.054 310.781C347.837 306.852 353.817 305.611 358.334 302.706C363.863 299.145 365.688 300.296 371.518 302.972C382.892 308.125 395.406 310.243 407.841 309.118Z" fill="black"/>
<path id="Vector_191" d="M513.703 300.857C506.307 303.719 498.869 306.593 491.123 308.299C478.138 311.161 464.551 310.709 451.668 313.981C444.863 315.717 438.099 318.513 431.107 317.946C427.981 317.693 424.964 316.741 421.922 316.018C404.836 311.8 385.412 313.168 371.536 324.015C366.79 327.721 362.905 332.343 359.382 337.272C358.628 338.337 358.119 339.555 357.89 340.839C357.661 342.124 357.719 343.443 358.059 344.703C358.399 345.963 359.013 347.132 359.857 348.126C360.701 349.121 361.754 349.917 362.942 350.457C368.338 352.94 374.119 354.483 380.034 355.019C387.942 355.718 395.886 354.597 403.752 353.476C415.424 351.819 427.102 350.156 438.744 348.294C442.923 347.625 447.103 346.932 451.307 346.401C481.559 342.575 512.359 347.227 542.69 344.033C545.755 343.708 548.875 343.286 551.664 341.978C558.722 338.664 562.216 329.926 560.758 322.249C559.301 314.572 553.675 308.19 546.906 304.273C541.232 300.977 535.113 299.645 528.795 298.247C522.929 296.879 519.352 298.687 513.703 300.857Z" fill="#E0AB8B"/>
<path id="Vector_192" opacity="0.1" d="M578.585 254.962C581.922 259.337 582.633 265.206 582.271 270.684C581.91 276.162 580.609 281.579 580.416 287.081C580.151 294.626 581.97 302.146 581.663 309.667C581.446 314.927 580.199 320.086 578.724 325.135C576.983 331.095 574.466 337.501 568.967 340.363C561.668 344.166 546.358 342.026 538.679 345.003C539.377 340.646 546.075 334.337 546.773 329.98C547.255 326.967 547.743 323.87 547.225 320.851C546.562 317 544.304 313.583 541.624 310.739C537.36 306.214 531.795 302.809 525.682 301.7C519.569 300.591 504.602 301.501 499.712 305.364C499.109 301.375 510.312 297.53 514.251 296.668C516.214 296.228 518.466 296.476 520.038 295.228C523.05 292.866 520.864 288.16 521.008 284.381C521.123 281.368 522.881 278.608 523.236 275.595C523.839 270.774 520.695 265.863 521.93 261.133C522.387 259.385 523.405 257.849 524.11 256.185C526.254 251.093 525.314 245.284 524.17 239.873C523.459 236.474 522.767 232.642 524.658 229.743C526.41 227.037 531.385 236.673 534.571 236.227C545.093 234.751 554.615 226.947 563.113 233.335C567.443 236.589 568.009 239.963 569.738 244.609C571.418 249.032 575.773 251.298 578.585 254.962Z" fill="black"/>
<path id="Vector_193" d="M580.392 254.962C583.729 259.337 584.439 265.206 584.078 270.684C583.717 276.162 582.416 281.579 582.223 287.081C581.958 294.626 583.777 302.146 583.47 309.667C583.253 314.927 582.006 320.086 580.531 325.135C578.79 331.095 576.273 337.501 570.774 340.363C563.474 344.166 548.165 342.026 540.486 345.003C541.184 340.647 547.881 334.337 548.58 329.98C549.062 326.967 549.55 323.87 549.032 320.851C548.369 317 546.111 313.584 543.431 310.739C539.167 306.214 533.602 302.809 527.489 301.7C521.375 300.591 506.409 301.501 501.518 305.364C500.916 301.375 512.118 297.53 516.057 296.668C518.021 296.229 520.273 296.476 521.845 295.228C524.857 292.866 522.67 288.16 522.815 284.381C522.929 281.368 524.688 278.608 525.043 275.595C525.646 270.774 522.502 265.863 523.736 261.133C524.194 259.385 525.212 257.849 525.917 256.185C528.061 251.093 527.121 245.284 525.977 239.873C525.266 236.474 524.573 232.642 526.465 229.743C528.217 227.037 531.644 226.013 534.83 225.561C545.498 224.117 556.306 226.907 564.944 233.335C569.274 236.589 569.84 239.963 571.569 244.609C573.225 249.033 577.58 251.298 580.392 254.962Z" fill="#4C4981"/>
<path id="Vector_194" d="M181.886 226.411L214.632 347.498C215.034 348.982 215.878 350.308 217.052 351.299C218.226 352.291 219.674 352.901 221.203 353.048L368.591 367.215C369.792 367.331 371.004 367.157 372.124 366.708C373.244 366.259 374.241 365.548 375.03 364.635C375.819 363.721 376.378 362.632 376.66 361.458C376.941 360.284 376.938 359.059 376.649 357.887L340.79 211.828C340.363 210.091 339.335 208.563 337.888 207.514C336.442 206.464 334.67 205.962 332.888 206.097L188.59 216.896C187.482 216.982 186.406 217.311 185.441 217.861C184.475 218.411 183.642 219.167 183.002 220.076C182.361 220.985 181.929 222.024 181.737 223.119C181.544 224.214 181.595 225.338 181.886 226.411Z" fill="#9C9CA1"/>
<path id="Vector_195" d="M474.055 250.039C483.002 250.039 490.256 242.687 490.256 233.618C490.256 224.549 483.002 217.197 474.055 217.197C465.107 217.197 457.854 224.549 457.854 233.618C457.854 242.687 465.107 250.039 474.055 250.039Z" fill="white"/>
<path id="Vector_196" d="M487.359 203.662C487.359 203.662 490.774 213.822 480.698 218.095L479.409 220.348L485.721 226.579C485.721 226.579 493.502 212.376 492.659 207.332C492.659 207.332 491.455 202.21 487.359 203.662Z" fill="white"/>
<path id="Vector_197" d="M475.916 250.039C484.544 250.039 491.539 243.04 491.539 234.407C491.539 225.774 484.544 218.776 475.916 218.776C467.288 218.776 460.293 225.774 460.293 234.407C460.293 243.04 467.288 250.039 475.916 250.039Z" fill="#DC143C"/>
<path id="Vector_198" d="M492.737 209.64L490.256 205.542L486.642 205.03C487.413 191.538 483.914 187.519 483.914 187.519L483.101 187.44L479.56 187.097L472.899 180.179V178.214C482.258 179.329 487.431 183.776 490.226 188.989C495.165 198.136 492.737 209.64 492.737 209.64Z" fill="#DC143C"/>
<path id="Vector_199" opacity="0.1" d="M483.131 184.957V187.44L479.59 187.097L472.929 180.179C472.929 180.179 483.233 182.487 483.131 184.957Z" fill="black" stroke="#4C4981" stroke-miterlimit="10"/>
<path id="Vector_200" opacity="0.1" d="M492.737 209.64L490.256 205.543V189.013C495.165 198.137 492.737 209.64 492.737 209.64Z" fill="black" stroke="#4C4981" stroke-miterlimit="10"/>
<path id="Vector_201" d="M447.047 240.833C451.204 238.432 451.025 230.336 446.647 222.75C442.27 215.164 435.352 210.96 431.195 213.362C427.038 215.763 427.217 223.859 431.595 231.445C435.972 239.031 442.89 243.234 447.047 240.833Z" fill="white"/>
<path id="Vector_202" d="M441.466 225.772C445.844 233.359 451.217 238.427 447.061 240.837C442.905 243.247 430.8 242.042 426.421 234.449C422.043 226.857 426.018 216.371 430.173 213.961C434.329 211.55 437.081 218.167 441.466 225.772Z" fill="#DC143C"/>
<path id="Vector_203" opacity="0.1" d="M480.451 171.116C480.451 195.358 463.87 218.721 439.641 218.721C428.004 218.721 416.845 214.096 408.616 205.863C400.388 197.631 395.765 186.465 395.765 174.822C395.765 163.179 400.388 152.013 408.616 143.78C416.845 135.547 428.004 130.922 439.641 130.922C463.87 130.946 480.451 146.867 480.451 171.116Z" fill="black"/>
<path id="Vector_204" d="M439.641 217.54C463.873 217.54 483.517 197.886 483.517 173.641C483.517 149.395 463.873 129.741 439.641 129.741C415.409 129.741 395.765 149.395 395.765 173.641C395.765 197.886 415.409 217.54 439.641 217.54Z" fill="#E0AB8B"/>
<path id="Vector_205" d="M435.786 154.188C441.008 156.111 444.098 161.51 448.784 164.517C455.409 168.735 464.033 167.645 471.598 165.56C475.814 164.409 480.222 163.005 484.372 164.282C484.982 164.553 485.656 164.648 486.317 164.559C487.221 164.3 487.666 163.3 487.961 162.408C493.093 147.102 490.786 129.765 483.041 115.604C481.041 111.952 478.644 108.421 475.344 105.884C472.742 103.889 469.682 102.581 466.599 101.467C460.963 99.4415 455.135 98.0018 449.205 97.17C448.158 96.9796 447.088 96.9451 446.031 97.0676C444.58 97.3026 443.279 98.0859 441.984 98.785C436.438 101.76 430.288 103.431 424 103.672C415.568 103.991 405.932 102.003 399.433 107.414C391.604 113.904 393.555 126.565 388.478 135.375C385.117 141.202 378.637 145.433 377.571 152.067C377.293 154.095 377.422 156.158 377.95 158.136C380.432 168.344 390.309 176.25 400.837 176.437C402.453 176.56 404.072 176.228 405.51 175.479C406.452 174.835 407.284 174.044 407.974 173.134C414.87 164.963 422.759 149.392 435.786 154.188Z" fill="#444053"/>
<path id="Vector_206" opacity="0.1" d="M487.961 157.967C487.666 158.859 487.221 159.859 486.317 160.118C485.656 160.207 484.982 160.111 484.372 159.841C480.222 158.563 475.789 159.967 471.604 161.118C464.033 163.203 455.39 164.318 448.79 160.076C444.098 157.063 441.014 151.639 435.786 149.747C422.759 144.926 414.869 160.522 407.955 168.693C407.266 169.602 406.434 170.394 405.492 171.037C404.054 171.787 402.435 172.119 400.818 171.995C390.327 171.809 380.444 163.902 377.932 153.694C377.794 153.092 377.673 152.489 377.583 151.887C377.583 151.941 377.583 151.989 377.553 152.043C377.275 154.071 377.404 156.134 377.932 158.111C380.413 168.32 390.297 176.226 400.818 176.413C402.435 176.536 404.054 176.204 405.492 175.454C406.434 174.811 407.266 174.019 407.955 173.11C414.869 164.939 422.759 149.368 435.786 154.164C441.014 156.087 444.098 161.486 448.79 164.493C455.415 168.711 464.033 167.621 471.604 165.536C475.82 164.385 480.222 162.98 484.372 164.258C484.982 164.528 485.656 164.624 486.317 164.535C487.221 164.276 487.666 163.276 487.961 162.384C490.031 156.121 490.945 149.534 490.66 142.944C490.482 148.055 489.574 153.114 487.961 157.967Z" fill="black"/>
<g id="Group 12">
<path id="Ellipse 3" d="M286.238 282.571C286.238 289.436 280.364 295 273.119 295C265.874 295 260 289.436 260 282.571C260 275.707 265.874 270.143 273.119 270.143C278.643 279.809 283.476 274.286 286.238 282.571Z" fill="#342F2F"/>
<ellipse id="Ellipse 4" cx="281.514" cy="270.818" rx="2.07143" ry="4.83333" transform="rotate(46.8308 281.514 270.818)" fill="#262020"/>
</g>
<path id="Vector_207" d="M182.262 228.446L214.799 348.651C215.198 350.123 216.037 351.44 217.203 352.424C218.37 353.408 219.809 354.014 221.328 354.16L367.775 368.224C367.775 367.724 367.179 368.17 368.293 367.724C369.406 367.278 369.008 367.131 369.793 366.224C370.577 365.317 370.013 366.39 370.293 365.224C370.573 364.059 369.183 367.269 370.793 363.724L274.293 352.424L244 300.259C244 300.259 225.77 270.625 224 270.759L188.923 219C187.822 219.085 186.754 219.413 185.794 219.959C184.834 220.504 184.007 221.255 183.371 222.157C182.734 223.059 182.305 224.091 182.114 225.178C181.922 226.265 181.973 227.381 182.262 228.446Z" fill="#080809" fill-opacity="0.2"/>
</g>
<defs>
<clipPath id="clip0">
<rect width="689" height="372" fill="white"/>
</clipPath>
</defs>
</svg>
