<svg width="109" height="70" viewBox="0 0 109 70" fill="none" xmlns="http://www.w3.org/2000/svg">
<g id="devLogo">
<path id="Vector" d="M53.3576 63.9912C63.0073 63.9912 70.8299 54.7527 70.8299 43.3563C70.8299 31.96 63.0073 22.7214 53.3576 22.7214C43.708 22.7214 35.8854 31.96 35.8854 43.3563C35.8854 54.7527 43.708 63.9912 53.3576 63.9912Z" fill="#BEA187"/>
<path id="Vector_2" d="M55.6425 60.4992C45.9341 60.4992 38.0358 51.1712 38.0358 39.7055C38.0358 28.2398 45.9341 18.9119 55.6425 18.9119C65.3508 18.9119 73.2491 28.2398 73.2491 39.7055C73.2491 51.1712 65.3508 60.4992 55.6425 60.4992ZM55.6425 19.2293C52.2133 19.2293 48.8612 20.4302 46.01 22.6802C43.1588 24.9301 40.9366 28.1281 39.6243 31.8696C38.312 35.6111 37.9687 39.7282 38.6377 43.7002C39.3067 47.6722 40.9579 51.3207 43.3827 54.1844C45.8074 57.048 48.8968 58.9982 52.26 59.7883C55.6232 60.5784 59.1093 60.1729 62.2774 58.6231C65.4455 57.0733 68.1533 54.4488 70.0584 51.0815C71.9635 47.7142 72.9803 43.7553 72.9803 39.7055C72.9751 34.2768 71.1468 29.0721 67.8964 25.2334C64.6461 21.3947 60.2391 19.2355 55.6425 19.2293V19.2293Z" fill="#3F3D56"/>
<path id="Vector_3" d="M109 70H0V0H109V70ZM0.268804 69.6825H108.731V0.31746H0.268804V69.6825Z" fill="#3F3D56"/>
<path id="Vector_4" d="M27.5523 5.55566H3.62877V8.4128H27.5523V5.55566Z" fill="#F2F2F2"/>
<path id="Vector_5" d="M63.4377 5.55566H39.5141V8.4128H63.4377V5.55566Z" fill="#F2F2F2"/>
<path id="Vector_6" d="M99.3231 5.55566H75.3995V8.4128H99.3231V5.55566Z" fill="#F2F2F2"/>
<path id="Vector_7" d="M29.1653 7.14311H4.97293V3.96851H29.1653V7.14311ZM5.24173 6.82565H28.8965V4.28597H5.24173V6.82565Z" fill="#3F3D56"/>
<path id="Vector_8" d="M65.0506 7.14311H40.8583V3.96851H65.0506V7.14311ZM41.1271 6.82565H64.7818V4.28597H41.1271V6.82565Z" fill="#3F3D56"/>
<path id="Vector_9" d="M100.936 7.14311H76.7437V3.96851H100.936V7.14311ZM77.0125 6.82565H100.667V4.28597H77.0125V6.82565Z" fill="#3F3D56"/>
</g>
</svg>
