<svg width="109" height="70" viewBox="0 0 109 70" fill="none" xmlns="http://www.w3.org/2000/svg">
<g id="Group 6">
<path id="Vector" d="M109 0.0617676H0.0464478V69.8404H109V0.0617676Z" fill="#E6E6E6"/>
<path id="Vector_2" d="M105.884 8.81372H3.16199V65.7123H105.884V8.81372Z" fill="white"/>
<path id="Vector_3" d="M108.953 0H0V4.62874H108.953V0Z" fill="#DC143C"/>
<path id="Vector_4" d="M76.8186 14.143H43.3755C43.3042 14.1336 43.2386 14.0986 43.1911 14.0444C43.1437 13.9903 43.1175 13.9207 43.1175 13.8487C43.1175 13.7767 43.1437 13.7072 43.1911 13.653C43.2386 13.5989 43.3042 13.5639 43.3755 13.5544H76.8186C76.89 13.5639 76.9556 13.5989 77.0031 13.653C77.0505 13.7072 77.0767 13.7767 77.0767 13.8487C77.0767 13.9207 77.0505 13.9903 77.0031 14.0444C76.9556 14.0986 76.89 14.1336 76.8186 14.143Z" fill="#CCCCCC"/>
<path id="Vector_5" d="M53.6459 17.3801H32.3827C32.3113 17.3707 32.2457 17.3356 32.1983 17.2815C32.1508 17.2274 32.1246 17.1578 32.1246 17.0858C32.1246 17.0138 32.1508 16.9442 32.1983 16.8901C32.2457 16.836 32.3113 16.8009 32.3827 16.7915H53.6459C53.7173 16.8009 53.7828 16.836 53.8303 16.8901C53.8778 16.9442 53.9039 17.0138 53.9039 17.0858C53.9039 17.1578 53.8778 17.2274 53.8303 17.2815C53.7828 17.3356 53.7173 17.3707 53.6459 17.3801Z" fill="#CCCCCC"/>
<path id="Vector_6" d="M76.8186 17.4392H55.5554C55.484 17.4298 55.4185 17.3947 55.371 17.3406C55.3235 17.2864 55.2974 17.2169 55.2974 17.1449C55.2974 17.0729 55.3235 17.0033 55.371 16.9492C55.4185 16.895 55.484 16.86 55.5554 16.8506H76.8186C76.89 16.86 76.9556 16.895 77.003 16.9492C77.0505 17.0033 77.0767 17.0729 77.0767 17.1449C77.0767 17.2169 77.0505 17.2864 77.003 17.3406C76.9556 17.3947 76.89 17.4298 76.8186 17.4392H76.8186Z" fill="#CCCCCC"/>
<path id="Vector_7" d="M53.6975 20.6174H32.4343C32.3629 20.608 32.2974 20.5729 32.2499 20.5188C32.2024 20.4647 32.1763 20.3951 32.1763 20.3231C32.1763 20.2511 32.2024 20.1815 32.2499 20.1274C32.2974 20.0733 32.3629 20.0382 32.4343 20.0288H53.6975C53.7689 20.0382 53.8344 20.0733 53.8819 20.1274C53.9294 20.1815 53.9556 20.2511 53.9556 20.3231C53.9556 20.3951 53.9294 20.4647 53.8819 20.5188C53.8344 20.5729 53.7689 20.608 53.6975 20.6174Z" fill="#CCCCCC"/>
<path id="Vector_8" d="M53.749 23.8544H32.4858C32.4144 23.845 32.3489 23.81 32.3014 23.7559C32.254 23.7017 32.2278 23.6322 32.2278 23.5602C32.2278 23.4882 32.254 23.4186 32.3014 23.3645C32.3489 23.3103 32.4144 23.2753 32.4858 23.2659H53.749C53.8204 23.2753 53.886 23.3103 53.9334 23.3645C53.9809 23.4186 54.0071 23.4882 54.0071 23.5602C54.0071 23.6322 53.9809 23.7017 53.9334 23.7559C53.886 23.81 53.8204 23.845 53.749 23.8544Z" fill="#CCCCCC"/>
<path id="Vector_9" d="M63.4001 20.6174H57.3102C57.2388 20.608 57.1732 20.5729 57.1258 20.5188C57.0783 20.4647 57.0521 20.3951 57.0521 20.3231C57.0521 20.2511 57.0783 20.1815 57.1258 20.1274C57.1732 20.0733 57.2388 20.0382 57.3102 20.0288H63.4001C63.4715 20.0382 63.537 20.0733 63.5845 20.1274C63.632 20.1815 63.6582 20.2511 63.6582 20.3231C63.6582 20.3951 63.632 20.4647 63.5845 20.5188C63.537 20.5729 63.4715 20.608 63.4001 20.6174Z" fill="#CCCCCC"/>
<path id="Vector_10" d="M63.4001 23.7956H57.3102C57.2388 23.7862 57.1732 23.7512 57.1258 23.697C57.0783 23.6429 57.0521 23.5733 57.0521 23.5013C57.0521 23.4293 57.0783 23.3598 57.1258 23.3056C57.1732 23.2515 57.2388 23.2164 57.3102 23.207H63.4001C63.4715 23.2164 63.537 23.2515 63.5845 23.3056C63.632 23.3598 63.6582 23.4293 63.6582 23.5013C63.6582 23.5733 63.632 23.6429 63.5845 23.697C63.537 23.7512 63.4715 23.7862 63.4001 23.7956Z" fill="#CCCCCC"/>
<path id="Vector_11" d="M73.6189 23.7956H67.5289C67.4575 23.7862 67.392 23.7512 67.3445 23.697C67.2971 23.6429 67.2709 23.5733 67.2709 23.5013C67.2709 23.4293 67.2971 23.3598 67.3445 23.3056C67.392 23.2515 67.4575 23.2164 67.5289 23.207H73.6189C73.6903 23.2164 73.7558 23.2515 73.8033 23.3056C73.8507 23.3598 73.8769 23.4293 73.8769 23.5013C73.8769 23.5733 73.8507 23.6429 73.8033 23.697C73.7558 23.7512 73.6903 23.7862 73.6189 23.7956Z" fill="#CCCCCC"/>
<path id="Vector_12" d="M38.3178 14.143H32.2278C32.1565 14.1336 32.0909 14.0986 32.0434 14.0444C31.996 13.9903 31.9698 13.9207 31.9698 13.8487C31.9698 13.7767 31.996 13.7072 32.0434 13.653C32.0909 13.5989 32.1565 13.5639 32.2278 13.5544H38.3178C38.3892 13.5639 38.4547 13.5989 38.5022 13.653C38.5497 13.7072 38.5758 13.7767 38.5758 13.8487C38.5758 13.9207 38.5497 13.9903 38.5022 14.0444C38.4547 14.0986 38.3892 14.1336 38.3178 14.143Z" fill="#CCCCCC"/>
<path id="Vector_13" d="M53.5686 51.26H32.3053C32.234 51.2506 32.1684 51.2155 32.121 51.1614C32.0735 51.1072 32.0473 51.0377 32.0473 50.9657C32.0473 50.8937 32.0735 50.8241 32.121 50.77C32.1684 50.7158 32.234 50.6808 32.3053 50.6714H53.5686C53.64 50.6808 53.7055 50.7158 53.753 50.77C53.8004 50.8241 53.8266 50.8937 53.8266 50.9657C53.8266 51.0377 53.8004 51.1072 53.753 51.1614C53.7055 51.2155 53.64 51.2506 53.5686 51.26H53.5686Z" fill="#CCCCCC"/>
<path id="Vector_14" d="M53.4653 57.7343H32.2021C32.1307 57.7249 32.0652 57.6899 32.0177 57.6357C31.9702 57.5816 31.944 57.512 31.944 57.44C31.944 57.368 31.9702 57.2985 32.0177 57.2443C32.0652 57.1902 32.1307 57.1552 32.2021 57.1458H53.4653C53.5367 57.1552 53.6022 57.1902 53.6497 57.2443C53.6972 57.2985 53.7233 57.368 53.7233 57.44C53.7233 57.512 53.6972 57.5816 53.6497 57.6357C53.6022 57.6899 53.5367 57.7249 53.4653 57.7343H53.4653Z" fill="#CCCCCC"/>
<path id="Vector_15" d="M53.5169 60.9716H32.2537C32.1823 60.9622 32.1168 60.9272 32.0693 60.8731C32.0218 60.8189 31.9957 60.7494 31.9957 60.6773C31.9957 60.6053 32.0218 60.5358 32.0693 60.4816C32.1168 60.4275 32.1823 60.3925 32.2537 60.3831H53.5169C53.5883 60.3925 53.6539 60.4275 53.7013 60.4816C53.7488 60.5358 53.775 60.6053 53.775 60.6773C53.775 60.7494 53.7488 60.8189 53.7013 60.8731C53.6539 60.9272 53.5883 60.9622 53.5169 60.9716H53.5169Z" fill="#CCCCCC"/>
<path id="Vector_16" d="M62.6002 57.7932H56.5103C56.4389 57.7838 56.3733 57.7487 56.3258 57.6946C56.2784 57.6404 56.2522 57.5709 56.2522 57.4989C56.2522 57.4269 56.2784 57.3573 56.3258 57.3032C56.3733 57.249 56.4389 57.214 56.5103 57.2046H62.6002C62.6716 57.214 62.7371 57.249 62.7846 57.3032C62.8321 57.3573 62.8582 57.4269 62.8582 57.4989C62.8582 57.5709 62.8321 57.6404 62.7846 57.6946C62.7371 57.7487 62.6716 57.7838 62.6002 57.7932Z" fill="#CCCCCC"/>
<path id="Vector_17" d="M62.6002 60.9716H56.5103C56.4389 60.9622 56.3733 60.9272 56.3258 60.8731C56.2784 60.8189 56.2522 60.7494 56.2522 60.6773C56.2522 60.6053 56.2784 60.5358 56.3258 60.4816C56.3733 60.4275 56.4389 60.3925 56.5103 60.3831H62.6002C62.6716 60.3925 62.7371 60.4275 62.7846 60.4816C62.8321 60.5358 62.8582 60.6053 62.8582 60.6773C62.8582 60.7494 62.8321 60.8189 62.7846 60.8731C62.7371 60.9272 62.6716 60.9622 62.6002 60.9716Z" fill="#CCCCCC"/>
<path id="Vector_18" d="M72.8189 57.7932H66.729C66.6576 57.7838 66.5921 57.7487 66.5446 57.6946C66.4971 57.6404 66.4709 57.5709 66.4709 57.4989C66.4709 57.4269 66.4971 57.3573 66.5446 57.3032C66.5921 57.249 66.6576 57.214 66.729 57.2046H72.8189C72.8903 57.214 72.9559 57.249 73.0033 57.3032C73.0508 57.3573 73.077 57.4269 73.077 57.4989C73.077 57.5709 73.0508 57.6404 73.0033 57.6946C72.9559 57.7487 72.8903 57.7838 72.8189 57.7932Z" fill="#CCCCCC"/>
<path id="Vector_19" d="M76.8445 54.4973H43.4014C43.33 54.4879 43.2644 54.4528 43.217 54.3987C43.1695 54.3445 43.1433 54.275 43.1433 54.203C43.1433 54.131 43.1695 54.0614 43.217 54.0073C43.2644 53.9531 43.33 53.9181 43.4014 53.9087H76.8445C76.9158 53.9181 76.9814 53.9531 77.0289 54.0073C77.0763 54.0614 77.1025 54.131 77.1025 54.203C77.1025 54.275 77.0763 54.3445 77.0289 54.3987C76.9814 54.4528 76.9158 54.4879 76.8445 54.4973Z" fill="#CCCCCC"/>
<path id="Vector_20" d="M38.3437 54.4973H32.2537C32.1823 54.4879 32.1168 54.4528 32.0693 54.3987C32.0218 54.3445 31.9957 54.275 31.9957 54.203C31.9957 54.131 32.0218 54.0614 32.0693 54.0073C32.1168 53.9531 32.1823 53.9181 32.2537 53.9087H38.3437C38.415 53.9181 38.4806 53.9531 38.5281 54.0073C38.5755 54.0614 38.6017 54.131 38.6017 54.203C38.6017 54.275 38.5755 54.3445 38.5281 54.3987C38.4806 54.4528 38.415 54.4879 38.3437 54.4973Z" fill="#CCCCCC"/>
<path id="Vector_21" d="M48.4334 29.0835L40.1757 37.238L48.4334 45.3923L50.2913 43.5343L44.0464 37.2895L50.3428 30.9931L48.4334 29.0835Z" fill="#E6E6E6"/>
<path id="Vector_22" d="M60.6132 29.0835L68.8707 37.238L60.6132 45.3923L58.7553 43.5343L65 37.2895L58.7036 30.9931L60.6132 29.0835Z" fill="#E6E6E6"/>
<path id="Vector_23" d="M48.4334 29.0835L40.1757 37.238L48.4334 45.3923L50.2913 43.5343L44.0464 37.2895L50.3428 30.9931L48.4334 29.0835Z" fill="#DC143C"/>
<path id="Vector_24" d="M60.6132 29.0835L68.8707 37.238L60.6132 45.3923L58.7553 43.5343L65 37.2895L58.7036 30.9931L60.6132 29.0835Z" fill="#DC143C"/>
</g>
</svg>
