<svg width="99" height="70" viewBox="0 0 99 70" fill="none" xmlns="http://www.w3.org/2000/svg">
<g id="designLogo">
<path id="Vector" d="M99.0004 0.0617676H0.942261V69.8404H99.0004V0.0617676Z" fill="#E6E6E6"/>
<path id="Vector_2" d="M96.196 8.81372H3.74579V65.7123H96.196V8.81372Z" fill="white"/>
<path id="Vector_3" d="M98.9582 0H0.900024V4.62874H98.9582V0Z" fill="#BEA187"/>
<path id="Vector_4" d="M70.0368 14.143H39.938C39.8737 14.1336 39.8148 14.0986 39.772 14.0444C39.7293 13.9903 39.7057 13.9207 39.7057 13.8487C39.7057 13.7767 39.7293 13.7072 39.772 13.653C39.8148 13.5989 39.8737 13.5639 39.938 13.5544H70.0368C70.101 13.5639 70.16 13.5989 70.2028 13.653C70.2455 13.7072 70.269 13.7767 70.269 13.8487C70.269 13.9207 70.2455 13.9903 70.2028 14.0444C70.16 14.0986 70.101 14.1336 70.0368 14.143Z" fill="#CCCCCC"/>
<path id="Vector_5" d="M49.1813 17.3801H30.0444C29.9802 17.3707 29.9212 17.3356 29.8784 17.2815C29.8357 17.2274 29.8122 17.1578 29.8122 17.0858C29.8122 17.0138 29.8357 16.9442 29.8784 16.8901C29.9212 16.836 29.9802 16.8009 30.0444 16.7915H49.1813C49.2455 16.8009 49.3045 16.836 49.3472 16.8901C49.39 16.9442 49.4135 17.0138 49.4135 17.0858C49.4135 17.1578 49.39 17.2274 49.3472 17.2815C49.3045 17.3356 49.2455 17.3707 49.1813 17.3801Z" fill="#CCCCCC"/>
<path id="Vector_6" d="M70.0368 17.4392H50.8999C50.8356 17.4298 50.7766 17.3947 50.7339 17.3406C50.6912 17.2864 50.6676 17.2169 50.6676 17.1449C50.6676 17.0729 50.6912 17.0033 50.7339 16.9492C50.7766 16.895 50.8356 16.86 50.8999 16.8506H70.0368C70.101 16.86 70.16 16.895 70.2027 16.9492C70.2455 17.0033 70.269 17.0729 70.269 17.1449C70.269 17.2169 70.2455 17.2864 70.2027 17.3406C70.16 17.3947 70.101 17.4298 70.0368 17.4392H70.0368Z" fill="#CCCCCC"/>
<path id="Vector_7" d="M49.2278 20.6174H30.0909C30.0266 20.608 29.9677 20.5729 29.9249 20.5188C29.8822 20.4647 29.8586 20.3951 29.8586 20.3231C29.8586 20.2511 29.8822 20.1815 29.9249 20.1274C29.9677 20.0733 30.0266 20.0382 30.0909 20.0288H49.2278C49.292 20.0382 49.351 20.0733 49.3937 20.1274C49.4365 20.1815 49.46 20.2511 49.46 20.3231C49.46 20.3951 49.4365 20.4647 49.3937 20.5188C49.351 20.5729 49.292 20.608 49.2278 20.6174Z" fill="#CCCCCC"/>
<path id="Vector_8" d="M49.2741 23.8544H30.1372C30.073 23.845 30.014 23.81 29.9713 23.7559C29.9286 23.7017 29.905 23.6322 29.905 23.5602C29.905 23.4882 29.9286 23.4186 29.9713 23.3645C30.014 23.3103 30.073 23.2753 30.1372 23.2659H49.2741C49.3384 23.2753 49.3974 23.3103 49.4401 23.3645C49.4828 23.4186 49.5064 23.4882 49.5064 23.5602C49.5064 23.6322 49.4828 23.7017 49.4401 23.7559C49.3974 23.81 49.3384 23.845 49.2741 23.8544Z" fill="#CCCCCC"/>
<path id="Vector_9" d="M57.9601 20.6174H52.4792C52.4149 20.608 52.3559 20.5729 52.3132 20.5188C52.2705 20.4647 52.2469 20.3951 52.2469 20.3231C52.2469 20.2511 52.2705 20.1815 52.3132 20.1274C52.3559 20.0733 52.4149 20.0382 52.4792 20.0288H57.9601C58.0244 20.0382 58.0833 20.0733 58.1261 20.1274C58.1688 20.1815 58.1923 20.2511 58.1923 20.3231C58.1923 20.3951 58.1688 20.4647 58.1261 20.5188C58.0833 20.5729 58.0244 20.608 57.9601 20.6174Z" fill="#CCCCCC"/>
<path id="Vector_10" d="M57.9601 23.7956H52.4792C52.4149 23.7862 52.3559 23.7512 52.3132 23.697C52.2705 23.6429 52.2469 23.5733 52.2469 23.5013C52.2469 23.4293 52.2705 23.3598 52.3132 23.3056C52.3559 23.2515 52.4149 23.2164 52.4792 23.207H57.9601C58.0244 23.2164 58.0833 23.2515 58.1261 23.3056C58.1688 23.3598 58.1923 23.4293 58.1923 23.5013C58.1923 23.5733 58.1688 23.6429 58.1261 23.697C58.0833 23.7512 58.0244 23.7862 57.9601 23.7956Z" fill="#CCCCCC"/>
<path id="Vector_11" d="M67.157 23.7956H61.676C61.6118 23.7862 61.5528 23.7512 61.5101 23.697C61.4673 23.6429 61.4438 23.5733 61.4438 23.5013C61.4438 23.4293 61.4673 23.3598 61.5101 23.3056C61.5528 23.2515 61.6118 23.2164 61.676 23.207H67.157C67.2212 23.2164 67.2802 23.2515 67.3229 23.3056C67.3657 23.3598 67.3892 23.4293 67.3892 23.5013C67.3892 23.5733 67.3657 23.6429 67.3229 23.697C67.2802 23.7512 67.2212 23.7862 67.157 23.7956Z" fill="#CCCCCC"/>
<path id="Vector_12" d="M35.386 14.143H29.9051C29.8408 14.1336 29.7818 14.0986 29.7391 14.0444C29.6964 13.9903 29.6728 13.9207 29.6728 13.8487C29.6728 13.7767 29.6964 13.7072 29.7391 13.653C29.7818 13.5989 29.8408 13.5639 29.9051 13.5544H35.386C35.4503 13.5639 35.5093 13.5989 35.552 13.653C35.5947 13.7072 35.6183 13.7767 35.6183 13.8487C35.6183 13.9207 35.5947 13.9903 35.552 14.0444C35.5093 14.0986 35.4503 14.1336 35.386 14.143Z" fill="#CCCCCC"/>
<path id="Vector_13" d="M49.1117 51.26H29.9748C29.9106 51.2506 29.8516 51.2155 29.8089 51.1614C29.7661 51.1072 29.7426 51.0377 29.7426 50.9657C29.7426 50.8937 29.7661 50.8241 29.8089 50.77C29.8516 50.7158 29.9106 50.6808 29.9748 50.6714H49.1117C49.176 50.6808 49.235 50.7158 49.2777 50.77C49.3204 50.8241 49.344 50.8937 49.344 50.9657C49.344 51.0377 49.3204 51.1072 49.2777 51.1614C49.235 51.2155 49.176 51.2506 49.1117 51.26H49.1117Z" fill="#CCCCCC"/>
<path id="Vector_14" d="M49.0188 57.7343H29.8819C29.8176 57.7249 29.7586 57.6899 29.7159 57.6357C29.6732 57.5816 29.6496 57.512 29.6496 57.44C29.6496 57.368 29.6732 57.2985 29.7159 57.2443C29.7586 57.1902 29.8176 57.1552 29.8819 57.1458H49.0188C49.083 57.1552 49.142 57.1902 49.1847 57.2443C49.2275 57.2985 49.251 57.368 49.251 57.44C49.251 57.512 49.2275 57.5816 49.1847 57.6357C49.142 57.6899 49.083 57.7249 49.0188 57.7343H49.0188Z" fill="#CCCCCC"/>
<path id="Vector_15" d="M49.0652 60.9716H29.9284C29.8641 60.9622 29.8051 60.9272 29.7624 60.8731C29.7197 60.8189 29.6961 60.7494 29.6961 60.6773C29.6961 60.6053 29.7197 60.5358 29.7624 60.4816C29.8051 60.4275 29.8641 60.3925 29.9284 60.3831H49.0652C49.1295 60.3925 49.1885 60.4275 49.2312 60.4816C49.2739 60.5358 49.2975 60.6053 49.2975 60.6773C49.2975 60.7494 49.2739 60.8189 49.2312 60.8731C49.1885 60.9272 49.1295 60.9622 49.0652 60.9716H49.0652Z" fill="#CCCCCC"/>
<path id="Vector_16" d="M57.2402 57.7932H51.7592C51.695 57.7838 51.636 57.7487 51.5933 57.6946C51.5505 57.6404 51.527 57.5709 51.527 57.4989C51.527 57.4269 51.5505 57.3573 51.5933 57.3032C51.636 57.249 51.695 57.214 51.7592 57.2046H57.2402C57.3044 57.214 57.3634 57.249 57.4061 57.3032C57.4489 57.3573 57.4724 57.4269 57.4724 57.4989C57.4724 57.5709 57.4489 57.6404 57.4061 57.6946C57.3634 57.7487 57.3044 57.7838 57.2402 57.7932Z" fill="#CCCCCC"/>
<path id="Vector_17" d="M57.2402 60.9716H51.7592C51.695 60.9622 51.636 60.9272 51.5933 60.8731C51.5505 60.8189 51.527 60.7494 51.527 60.6773C51.527 60.6053 51.5505 60.5358 51.5933 60.4816C51.636 60.4275 51.695 60.3925 51.7592 60.3831H57.2402C57.3044 60.3925 57.3634 60.4275 57.4061 60.4816C57.4489 60.5358 57.4724 60.6053 57.4724 60.6773C57.4724 60.7494 57.4489 60.8189 57.4061 60.8731C57.3634 60.9272 57.3044 60.9622 57.2402 60.9716Z" fill="#CCCCCC"/>
<path id="Vector_18" d="M66.437 57.7932H60.9561C60.8918 57.7838 60.8329 57.7487 60.7901 57.6946C60.7474 57.6404 60.7238 57.5709 60.7238 57.4989C60.7238 57.4269 60.7474 57.3573 60.7901 57.3032C60.8329 57.249 60.8918 57.214 60.9561 57.2046H66.437C66.5013 57.214 66.5603 57.249 66.603 57.3032C66.6457 57.3573 66.6693 57.4269 66.6693 57.4989C66.6693 57.5709 66.6457 57.6404 66.603 57.6946C66.5603 57.7487 66.5013 57.7838 66.437 57.7932Z" fill="#CCCCCC"/>
<path id="Vector_19" d="M70.06 54.4973H39.9612C39.897 54.4879 39.838 54.4528 39.7953 54.3987C39.7525 54.3445 39.729 54.275 39.729 54.203C39.729 54.131 39.7525 54.0614 39.7953 54.0073C39.838 53.9531 39.897 53.9181 39.9612 53.9087H70.06C70.1243 53.9181 70.1832 53.9531 70.226 54.0073C70.2687 54.0614 70.2922 54.131 70.2922 54.203C70.2922 54.275 70.2687 54.3445 70.226 54.3987C70.1832 54.4528 70.1243 54.4879 70.06 54.4973Z" fill="#CCCCCC"/>
<path id="Vector_20" d="M35.4093 54.4973H29.9283C29.8641 54.4879 29.8051 54.4528 29.7624 54.3987C29.7197 54.3445 29.6961 54.275 29.6961 54.203C29.6961 54.131 29.7197 54.0614 29.7624 54.0073C29.8051 53.9531 29.8641 53.9181 29.9283 53.9087H35.4093C35.4735 53.9181 35.5325 53.9531 35.5753 54.0073C35.618 54.0614 35.6415 54.131 35.6415 54.203C35.6415 54.275 35.618 54.3445 35.5753 54.3987C35.5325 54.4528 35.4735 54.4879 35.4093 54.4973Z" fill="#CCCCCC"/>
<path id="Vector_21" d="M44.49 29.0835L37.0581 37.238L44.49 45.3923L46.1622 43.5343L40.5418 37.2895L46.2085 30.9931L44.49 29.0835Z" fill="#E6E6E6"/>
<path id="Vector_22" d="M55.4519 29.0835L62.8836 37.238L55.4519 45.3923L53.7797 43.5343L59.4 37.2895L53.7332 30.9931L55.4519 29.0835Z" fill="#E6E6E6"/>
<path id="Vector_23" d="M44.49 29.0835L37.0581 37.238L44.49 45.3923L46.1622 43.5343L40.5418 37.2895L46.2085 30.9931L44.49 29.0835Z" fill="#BEA187"/>
<path id="Vector_24" d="M55.4519 29.0835L62.8836 37.238L55.4519 45.3923L53.7797 43.5343L59.4 37.2895L53.7332 30.9931L55.4519 29.0835Z" fill="#BEA187"/>
</g>
</svg>
