<svg width="109" height="70" viewBox="0 0 109 70" fill="none" xmlns="http://www.w3.org/2000/svg">
<g clip-path="url(#clip0)">
<path d="M59.4965 19.4943C65.0395 19.4943 69.533 16.1505 69.533 12.0257C69.533 7.90093 65.0395 4.55713 59.4965 4.55713C53.9535 4.55713 49.46 7.90093 49.46 12.0257C49.46 16.1505 53.9535 19.4943 59.4965 19.4943Z" fill="#E0AB8B"/>
<path d="M52.0053 15.76C52.0053 15.76 53.8963 26.3676 50.9871 27.5582C48.078 28.7489 68.2965 28.8571 68.2965 28.8571C68.2965 28.8571 63.7873 19.6567 65.8237 16.8424L52.0053 15.76Z" fill="#E0AB8B"/>
<path d="M83.0602 28.9107L81.3787 34.6084L77.8233 46.663L77.7169 47.3232L76.4899 54.9659L75.6737 60.043L75.1264 63.4535C71.7989 64.7261 69.3872 65.6047 69.3872 65.6047C69.3872 65.6047 69.1798 64.8307 68.8454 63.8405C66.5102 64.3615 62.1891 65.2258 58.5272 65.3985C59.8607 66.5045 60.4735 67.5435 59.6423 68.3103C57.1337 70.6219 46.7773 65.7793 43.155 63.9735C43.0707 64.4059 43.0387 64.843 43.0595 65.2796L40.2875 63.6932L40.5618 60.043L41.0245 53.8669L41.6059 46.1217C41.4226 45.79 41.2689 45.4497 41.146 45.103C40.297 42.8564 39.2666 38.3704 38.4763 34.6084C37.8403 31.5808 37.3626 29.0224 37.2616 28.4781C37.248 28.407 37.2411 28.3704 37.2411 28.3704L52.5861 23.3247C53.6766 25.2067 58.7688 25.7724 58.7688 25.7724C62.9875 25.5561 66.2945 23.9006 66.2945 23.9006L83.0602 28.9107Z" fill="#121212"/>
<path d="M83.0602 28.9107L81.3787 34.6084L77.8233 46.663L77.7169 47.3232L76.4899 54.9659L75.6737 60.043L75.1264 63.4535C71.7989 64.7261 69.3872 65.6047 69.3872 65.6047C69.3872 65.6047 69.1798 64.8307 68.8454 63.8405C66.5102 64.3615 62.1891 65.2258 58.5272 65.3985C59.8607 66.5045 60.4735 67.5435 59.6423 68.3103C57.1337 70.6219 46.7773 65.7793 43.155 63.9735C43.0707 64.4059 43.0387 64.843 43.0595 65.2796L40.2875 63.6932L40.5618 60.043L41.0245 53.8669L41.6059 46.1217C41.4226 45.79 41.2689 45.4497 41.146 45.103C40.297 42.8564 39.2666 38.3704 38.4763 34.6084C37.8403 31.5808 37.3626 29.0224 37.2616 28.4781C37.248 28.407 37.2411 28.3704 37.2411 28.3704L52.5861 23.3247C53.6766 25.2067 58.7688 25.7724 58.7688 25.7724C62.9875 25.5561 66.2945 23.9006 66.2945 23.9006L83.0602 28.9107Z" fill="white" fill-opacity="0.16"/>
<path d="M70.5514 63.4403C70.5514 63.4403 69.9017 63.6059 68.8453 63.8405C66.5101 64.3615 62.189 65.2258 58.5271 65.3985C55.3743 65.5488 52.7102 65.1872 52.2229 63.6567C52.0141 62.9985 52.3103 62.4572 52.9558 62.0123C54.883 60.6829 59.9165 60.2065 63.9087 60.043C65.0361 59.9973 66.0788 59.976 66.9469 59.9679C68.4209 59.9537 69.3872 59.976 69.3872 59.976L69.4104 60.043L70.5514 63.4403Z" fill="#A0616A"/>
<path d="M51.1469 4.96106L49.2703 4.402C49.2703 4.402 53.1941 1.18743 58.6533 1.46697L57.1179 0.209081C57.1179 0.209081 60.871 -0.909019 64.283 2.02601C66.0766 3.56889 68.1518 5.38247 69.4455 7.42544H71.4552L70.6164 8.79978L73.5521 10.1741L70.5389 9.92726C70.7184 10.6799 70.746 11.4482 70.6207 12.2069C70.4914 12.9657 69.971 13.6576 69.1692 14.1364V14.1364C69.1692 14.1364 66.8419 10.5516 66.8419 9.99254V11.3902C66.8419 11.3902 64.9653 10.1323 64.9653 9.29373L63.9418 10.2721L63.43 8.73467L57.1179 10.2721L58.1414 9.01421L54.2177 9.4335L55.7531 7.89609C55.7531 7.89609 51.3176 9.71302 51.1469 11.2504C50.9764 12.7878 49.6781 14.2446 49.6781 14.2446C49.6781 14.2446 46.1996 7.0575 51.1469 4.96106Z" fill="#2F2E41"/>
<path d="M93.9694 55.1049C92.9472 55.9296 90.414 57.1718 87.3431 58.5165C86.2007 59.0162 84.9847 59.5311 83.744 60.043C80.7837 61.2648 77.6841 62.4754 75.1264 63.4535C71.7989 64.7261 69.3872 65.6046 69.3872 65.6046C69.3872 65.6046 69.1798 64.8307 68.8454 63.8404C68.3977 62.515 67.7235 60.8016 67.0206 60.043C66.996 60.0166 66.9714 59.9922 66.9469 59.9678C66.7422 59.7677 66.5361 59.6509 66.3327 59.6509L76.4899 54.9658L80.8792 52.9406L77.7169 47.3231L73.7506 40.2766L76.1446 34.6084L78.5508 28.9106H83.0602C83.0602 28.9106 84.5534 31.336 86.4628 34.7181C86.748 35.2238 87.0429 35.751 87.3431 36.2953C91.2711 43.4048 96.1682 53.3327 93.9694 55.1049Z" fill="#D0CDE1"/>
<path d="M59.6423 68.3103C57.1337 70.6219 46.7773 65.7793 43.155 63.9735C42.3661 63.5804 41.8966 63.3316 41.8966 63.3316L45.2105 60.043L46.26 59.002C46.26 59.002 47.199 59.3727 48.5871 59.976C48.6376 59.9983 48.6881 60.0206 48.7399 60.043C49.9369 60.566 51.4396 61.2496 52.9559 62.0123C55.0482 63.0655 57.1637 64.267 58.5272 65.3984C59.8607 66.5045 60.4735 67.5435 59.6423 68.3103Z" fill="#A0616A"/>
<path d="M48.587 59.976C48.2166 59.9749 47.8468 59.9974 47.4815 60.043C44.3437 60.4442 43.4184 62.5577 43.155 63.9735C43.0706 64.4059 43.0387 64.843 43.0594 65.2796L40.2874 63.6932L39.2775 63.1153C36.8467 62.4846 34.6807 61.3644 32.8026 60.043C31.1734 58.8765 29.712 57.5867 28.442 56.1948C27.177 54.8228 26.0493 53.3835 25.0681 51.8885C24.7943 51.4713 24.6471 51.0144 24.637 50.5501C24.6268 50.0859 24.754 49.6257 25.0094 49.2021L28.442 43.5095L33.4591 35.1894C33.496 34.9913 33.5365 34.7977 33.5806 34.6084C34.5756 30.3631 37.2411 28.478 37.2411 28.478H39.2774L40.6396 34.6084L42.332 42.2247L41.1459 45.103L38.4053 51.7503L41.0244 53.8669L48.587 59.976Z" fill="#D0CDE1"/>
<path d="M87.6482 67.1469V67.7166C87.6486 67.873 87.6097 68.028 87.5334 68.1737C87.4995 68.2387 87.4586 68.3015 87.4111 68.3615C87.2607 68.5492 87.0475 68.7047 86.7921 68.8127C86.5367 68.9206 86.2481 68.9773 85.9544 68.9772H29.6358C29.3421 68.9773 29.0534 68.9206 28.7981 68.8127C28.5427 68.7047 28.3294 68.5492 28.1791 68.3615C28.1315 68.3015 28.0906 68.2387 28.0568 68.1737C27.9805 68.028 27.9416 67.873 27.942 67.7166V67.1469C27.9419 66.9813 27.9857 66.8174 28.0708 66.6644C28.1559 66.5115 28.2807 66.3725 28.438 66.2554C28.5953 66.1384 28.782 66.0455 28.9875 65.9822C29.193 65.9188 29.4133 65.8863 29.6358 65.8863H32.8821V65.6207C32.8821 65.6138 32.8839 65.6069 32.8874 65.6005C32.891 65.5942 32.8962 65.5884 32.9027 65.5835C32.9093 65.5786 32.9171 65.5747 32.9257 65.5721C32.9342 65.5695 32.9434 65.5681 32.9527 65.5681H34.6465C34.6558 65.5681 34.665 65.5695 34.6735 65.5721C34.6821 65.5747 34.6899 65.5786 34.6965 65.5835C34.703 65.5884 34.7082 65.5942 34.7118 65.6005C34.7153 65.6069 34.7171 65.6138 34.7171 65.6207V65.8863H35.7753V65.6207C35.7752 65.6138 35.7771 65.6069 35.7806 65.6005C35.7841 65.5942 35.7893 65.5884 35.7959 65.5835C35.8025 65.5786 35.8103 65.5747 35.8188 65.5721C35.8274 65.5695 35.8366 65.5681 35.8459 65.5681H37.5397C37.5489 65.5681 37.5581 65.5695 37.5667 65.5721C37.5753 65.5747 37.5831 65.5786 37.5896 65.5835C37.5962 65.5884 37.6014 65.5942 37.605 65.6005C37.6085 65.6069 37.6103 65.6138 37.6103 65.6207V65.8863H38.6697V65.6207C38.6697 65.6138 38.6715 65.6069 38.675 65.6005C38.6786 65.5942 38.6838 65.5884 38.6904 65.5835C38.6969 65.5786 38.7047 65.5747 38.7133 65.5721C38.7219 65.5695 38.731 65.5681 38.7403 65.5681H40.4341C40.4434 65.5681 40.4526 65.5695 40.4612 65.5721C40.4697 65.5747 40.4775 65.5786 40.4841 65.5835C40.4906 65.5884 40.4958 65.5942 40.4994 65.6005C40.5029 65.6069 40.5047 65.6138 40.5047 65.6207V65.8863H41.5629V65.6207C41.5629 65.6138 41.5647 65.6069 41.5682 65.6005C41.5718 65.5942 41.577 65.5884 41.5835 65.5835C41.5901 65.5786 41.5979 65.5747 41.6065 65.5721C41.615 65.5695 41.6242 65.5681 41.6335 65.5681H43.3273C43.3366 65.5681 43.3458 65.5695 43.3543 65.5721C43.3629 65.5747 43.3707 65.5786 43.3773 65.5835C43.3838 65.5884 43.389 65.5942 43.3926 65.6005C43.3961 65.6069 43.3979 65.6138 43.3979 65.6207V65.8863H44.4561V65.6207C44.456 65.6138 44.4579 65.6069 44.4614 65.6005C44.4649 65.5942 44.4701 65.5884 44.4767 65.5835C44.4833 65.5786 44.4911 65.5747 44.4996 65.5721C44.5082 65.5695 44.5174 65.5681 44.5267 65.5681H46.2205C46.2297 65.5681 46.2389 65.5695 46.2475 65.5721C46.2561 65.5747 46.2639 65.5786 46.2704 65.5835C46.277 65.5884 46.2822 65.5942 46.2857 65.6005C46.2893 65.6069 46.2911 65.6138 46.2911 65.6207V65.8863H47.3505V65.6207C47.3505 65.6138 47.3523 65.6069 47.3558 65.6005C47.3594 65.5942 47.3646 65.5884 47.3712 65.5835C47.3777 65.5786 47.3855 65.5747 47.3941 65.5721C47.4027 65.5695 47.4118 65.5681 47.4211 65.5681H49.1149C49.1242 65.5681 49.1334 65.5695 49.1419 65.5721C49.1505 65.5747 49.1583 65.5786 49.1649 65.5835C49.1714 65.5884 49.1766 65.5942 49.1802 65.6005C49.1837 65.6069 49.1855 65.6138 49.1855 65.6207V65.8863H50.2437V65.6207C50.2437 65.6138 50.2455 65.6069 50.249 65.6005C50.2526 65.5942 50.2578 65.5884 50.2643 65.5835C50.2709 65.5786 50.2787 65.5747 50.2873 65.5721C50.2958 65.5695 50.305 65.5681 50.3143 65.5681H63.5821C63.5913 65.5681 63.6005 65.5695 63.6091 65.5721C63.6177 65.5747 63.6255 65.5786 63.632 65.5835C63.6386 65.5884 63.6438 65.5942 63.6473 65.6005C63.6509 65.6069 63.6527 65.6138 63.6527 65.6207V65.8863H64.7121V65.6207C64.7121 65.6138 64.7139 65.6069 64.7174 65.6005C64.721 65.5942 64.7262 65.5884 64.7327 65.5835C64.7393 65.5786 64.7471 65.5747 64.7557 65.5721C64.7642 65.5695 64.7734 65.5681 64.7827 65.5681H66.4765C66.4952 65.5683 66.513 65.5738 66.5262 65.5837C66.5395 65.5935 66.5469 65.6068 66.5471 65.6207V65.8863H67.6053V65.6207C67.6053 65.6138 67.6071 65.6069 67.6106 65.6005C67.6142 65.5942 67.6194 65.5884 67.6259 65.5835C67.6325 65.5786 67.6403 65.5747 67.6488 65.5721C67.6574 65.5695 67.6666 65.5681 67.6759 65.5681H69.3697C69.379 65.5681 69.3882 65.5695 69.3967 65.5721C69.4053 65.5747 69.4131 65.5786 69.4197 65.5835C69.4262 65.5884 69.4314 65.5942 69.435 65.6005C69.4385 65.6069 69.4403 65.6138 69.4403 65.6207V65.8863H70.4985V65.6207C70.4984 65.6138 70.5003 65.6069 70.5038 65.6005C70.5073 65.5942 70.5125 65.5884 70.5191 65.5835C70.5257 65.5786 70.5335 65.5747 70.542 65.5721C70.5506 65.5695 70.5598 65.5681 70.5691 65.5681H72.2629C72.2721 65.5681 72.2813 65.5695 72.2899 65.5721C72.2985 65.5747 72.3063 65.5786 72.3128 65.5835C72.3194 65.5884 72.3246 65.5942 72.3281 65.6005C72.3317 65.6069 72.3335 65.6138 72.3335 65.6207V65.8863H73.3929V65.6207C73.3929 65.6138 73.3947 65.6069 73.3982 65.6005C73.4018 65.5942 73.407 65.5884 73.4135 65.5835C73.4201 65.5786 73.4279 65.5747 73.4365 65.5721C73.4451 65.5695 73.4542 65.5681 73.4635 65.5681H75.1573C75.1758 65.5683 75.1935 65.5739 75.2065 65.5838C75.2195 65.5936 75.2268 65.6069 75.2267 65.6207V65.8863H76.2861V65.6207C76.2861 65.6138 76.2879 65.6069 76.2914 65.6005C76.295 65.5942 76.3002 65.5884 76.3067 65.5835C76.3133 65.5786 76.3211 65.5747 76.3297 65.5721C76.3382 65.5695 76.3474 65.5681 76.3567 65.5681H78.0505C78.0598 65.5681 78.069 65.5695 78.0775 65.5721C78.0861 65.5747 78.0939 65.5786 78.1005 65.5835C78.107 65.5884 78.1122 65.5942 78.1158 65.6005C78.1193 65.6069 78.1211 65.6138 78.1211 65.6207V65.8863H79.1792V65.6207C79.1792 65.6138 79.1811 65.6069 79.1846 65.6005C79.1881 65.5942 79.1933 65.5884 79.1999 65.5835C79.2065 65.5786 79.2143 65.5747 79.2228 65.5721C79.2314 65.5695 79.2406 65.5681 79.2499 65.5681H80.9437C80.9529 65.5681 80.9621 65.5695 80.9707 65.5721C80.9793 65.5747 80.9871 65.5786 80.9936 65.5835C81.0002 65.5884 81.0054 65.5942 81.0089 65.6005C81.0125 65.6069 81.0143 65.6138 81.0143 65.6207V65.8863H85.9544C86.1768 65.8863 86.3971 65.9188 86.6026 65.9822C86.8082 66.0455 86.9949 66.1384 87.1522 66.2554C87.3095 66.3725 87.4343 66.5115 87.5194 66.6644C87.6045 66.8174 87.6482 66.9813 87.6482 67.1469Z" fill="#3F3D56"/>
<path d="M108.3 68.1824H8.25742V68.3855H108.3V68.1824Z" fill="#3F3D56"/>
<path d="M85.6705 41.1087H62.9537V40.7603H52.653V41.1087H29.8426C29.435 41.1087 29.0442 41.2291 28.756 41.4436C28.4678 41.658 28.3059 41.9489 28.3059 42.2521V65.3997C28.3059 65.703 28.4678 65.9938 28.756 66.2082C29.0442 66.4227 29.435 66.5432 29.8426 66.5432H85.6705C86.0781 66.5432 86.4689 66.4227 86.7571 66.2082C87.0453 65.9938 87.2072 65.703 87.2072 65.3997V42.2521C87.2072 42.102 87.1674 41.9533 87.0902 41.8146C87.013 41.6758 86.8998 41.5498 86.7571 41.4436C86.6144 41.3374 86.445 41.2532 86.2586 41.1957C86.0722 41.1382 85.8723 41.1087 85.6705 41.1087V41.1087Z" fill="#3F3D56"/>
<path d="M59.0039 56.0782C60.8884 56.0782 62.416 54.9414 62.416 53.5391C62.416 52.1368 60.8884 51 59.0039 51C57.1195 51 55.5918 52.1368 55.5918 53.5391C55.5918 54.9414 57.1195 56.0782 59.0039 56.0782Z" stroke="#D0CDE1" stroke-width="2" stroke-miterlimit="10"/>
<path d="M57.9121 56.9922C59.7966 56.9922 61.3242 55.8555 61.3242 54.4532C61.3242 53.0509 59.7966 51.9141 57.9121 51.9141C56.0276 51.9141 54.5 53.0509 54.5 54.4532C54.5 55.8555 56.0276 56.9922 57.9121 56.9922Z" fill="#D0CDE1"/>
<path d="M14.8011 67.1562H10.9795V70H14.8011V67.1562Z" fill="#D0CDE1"/>
<path d="M12.4816 64.9219V68.375H17.122V64.9219H12.4816ZM16.92 68.2247H12.6822V65.0722H16.92V68.2247Z" fill="#3F3D56"/>
<path d="M103.243 67.1562H99.4214V70H103.243V67.1562Z" fill="#D0CDE1"/>
<path d="M100.923 64.9219V68.375H105.564V64.9219H100.923ZM105.362 68.2247H101.124V65.0722H105.362V68.2247Z" fill="#3F3D56"/>
<path d="M12.9087 23.3711C18.8892 23.3711 23.7374 19.7634 23.7374 15.313C23.7374 10.8626 18.8892 7.25488 12.9087 7.25488C6.92814 7.25488 2.07996 10.8626 2.07996 15.313C2.07996 19.7634 6.92814 23.3711 12.9087 23.3711Z" fill="#DC143C"/>
<path d="M16.6821 5.73732C15.7016 5.64453 14.7093 5.64453 13.7288 5.73732C11.5444 5.95074 9.48819 6.62599 7.80407 7.68293C6.11995 8.73988 4.87863 10.1342 4.22741 11.7003C3.93124 12.4141 3.76351 13.1539 3.72863 13.9004C3.72372 14.0042 3.72043 14.1092 3.72043 14.2142C3.72347 16.4802 4.93447 18.6527 7.08767 20.255C9.24087 21.8573 12.1604 22.7584 15.2054 22.7607C15.4499 22.7607 15.6944 22.7546 15.9355 22.7436C16.5017 22.7172 17.0644 22.6592 17.6189 22.5702C20.267 22.1465 22.6286 21.04 24.2867 19.4462C25.9448 17.8524 26.7927 15.8739 26.6806 13.8601C26.5685 11.8462 25.5037 9.92662 23.6742 8.44033C21.8446 6.95404 19.3681 5.99667 16.6821 5.73732H16.6821ZM18.8002 22.0745H18.7986C17.8736 22.3094 16.9109 22.4519 15.9355 22.4982C15.6943 22.5104 15.4499 22.5165 15.2054 22.5165C12.2475 22.5138 9.41186 21.6382 7.32033 20.0818C5.22879 18.5254 4.05218 16.4153 4.04856 14.2142C4.04856 14.1092 4.05184 14.0042 4.05676 13.9004C4.16956 11.7554 5.39303 9.7259 7.47107 8.23689C9.54911 6.74788 12.3206 5.91476 15.2054 5.91191C17.8486 5.91202 20.4059 6.61042 22.4217 7.88267C24.4376 9.15493 25.7809 10.9184 26.2125 12.8589C26.6441 14.7995 26.1359 16.791 24.7785 18.4787C23.421 20.1664 21.3024 21.4407 18.8002 22.0745H18.8002Z" fill="#3F3D56"/>
<path d="M15.3698 6.40039H15.0416V8.10969H15.3698V6.40039Z" fill="#3F3D56"/>
<path d="M7.89661 8.60248L7.66458 8.77515L9.2888 9.9838L9.52084 9.81114L7.89661 8.60248Z" fill="#3F3D56"/>
<path d="M4.70514 14.092V14.3362H7.00214V14.092H4.70514Z" fill="#3F3D56"/>
<path d="M7.66473 19.6533L7.89676 19.8259L9.52098 18.6173L9.28895 18.4446L7.66473 19.6533Z" fill="#3F3D56"/>
<path d="M20.8906 9.81122L21.1227 9.98389L22.7469 8.77524L22.5148 8.60257L20.8906 9.81122Z" fill="#3F3D56"/>
<path d="M23.4091 14.092V14.3362H25.7061V14.092H23.4091Z" fill="#3F3D56"/>
<path d="M21.1224 18.4445L20.8904 18.6172L22.5146 19.8258L22.7466 19.6532L21.1224 18.4445Z" fill="#3F3D56"/>
<path d="M15.3698 20.3188H15.0416V22.0282H15.3698V20.3188Z" fill="#3F3D56"/>
<path d="M15.6978 13.7259C15.5558 13.6466 15.3831 13.6038 15.2056 13.6038C15.0281 13.6038 14.8554 13.6466 14.7134 13.7259C14.6162 13.7808 14.5361 13.8508 14.4788 13.931C14.4061 14.0342 14.3746 14.1508 14.3882 14.2669C14.4017 14.3831 14.4596 14.4939 14.5551 14.5863C14.6505 14.6787 14.7795 14.7489 14.9269 14.7885C15.0742 14.8281 15.2337 14.8354 15.3865 14.8097C15.5393 14.784 15.679 14.7263 15.7891 14.6434C15.8992 14.5605 15.9751 14.4559 16.0078 14.3419C16.0406 14.2279 16.0288 14.1093 15.9738 14.0001C15.9189 13.891 15.8231 13.7958 15.6978 13.7259H15.6978ZM15.2056 14.5805C15.0752 14.5802 14.9502 14.5415 14.858 14.4729C14.7657 14.4043 14.7138 14.3113 14.7134 14.2142C14.714 14.1401 14.7443 14.0679 14.8003 14.0067C14.8484 13.9549 14.9136 13.9131 14.9897 13.8856C15.0658 13.858 15.1501 13.8455 15.2346 13.8493C15.319 13.8531 15.4008 13.8731 15.4718 13.9072C15.5429 13.9414 15.6009 13.9886 15.6403 14.0444C15.6796 14.1001 15.699 14.1624 15.6965 14.2254C15.694 14.2883 15.6697 14.3497 15.626 14.4036C15.5823 14.4575 15.5207 14.5021 15.447 14.5331C15.3734 14.5641 15.2902 14.5804 15.2056 14.5805V14.5805Z" fill="#3F3D56"/>
<path d="M15.698 9.57471H14.7136V13.7259H15.698V9.57471Z" fill="#3F3D56"/>
<path d="M30.8454 22.3887H0V22.6329H30.8454V22.3887Z" fill="#3F3D56"/>
<ellipse cx="54.7637" cy="14.7728" rx="0.724911" ry="0.568182" fill="black"/>
<ellipse cx="62.9353" cy="14.7728" rx="0.724913" ry="0.568182" fill="black"/>
</g>
<defs>
<clipPath id="clip0">
<rect width="109" height="70" fill="white"/>
</clipPath>
</defs>
</svg>
