<svg width="554" height="464" viewBox="0 0 554 464" fill="none" xmlns="http://www.w3.org/2000/svg">
<g id="Frame 1">
<g id="Group 1">
<path id="Vector" d="M433.758 171.341C428.571 169.566 423.343 167.921 418.072 166.407C418.94 162.862 419.748 159.299 420.495 155.718C432.37 98.1508 424.605 51.7745 398.087 36.5115C372.66 21.8672 331.075 37.138 289.066 73.6235C284.925 77.2363 280.88 80.9431 276.933 84.7438C274.282 82.2117 271.589 79.7292 268.854 77.2963C224.846 38.2735 180.759 21.8359 154.233 37.1459C128.829 51.8293 121.291 95.4255 131.997 149.985C133.043 155.389 134.243 160.761 135.597 166.102C129.362 167.872 123.331 169.759 117.558 171.772C65.9573 189.697 33 217.89 33 247.092C33 277.25 68.3809 307.502 122.131 325.842C126.491 327.32 130.884 328.693 135.307 329.962C133.875 335.705 132.599 341.494 131.48 347.331C121.284 400.943 129.252 443.514 154.586 458.103C180.759 473.186 224.681 457.68 267.442 420.357C270.823 417.405 274.211 414.272 277.639 410.999C281.916 415.118 286.305 419.117 290.807 422.996C332.235 458.589 373.161 472.967 398.464 458.33C424.605 443.224 433.1 397.49 422.072 341.857C421.235 337.607 420.26 333.272 419.146 328.85C422.237 327.941 425.259 326.999 428.213 326.023C484.088 307.541 520.45 277.657 520.45 247.092C520.45 217.78 486.426 189.439 433.782 171.341H433.758Z" fill="#53C1DE"/>
<path id="Vector_2" d="M421.64 306.288C418.974 307.173 416.244 308.019 413.452 308.849C406.64 287.76 398.393 267.161 388.769 247.194C398.026 227.493 405.952 207.197 412.495 186.44C417.476 187.881 422.323 189.4 426.982 191.005C472.088 206.503 499.602 229.425 499.602 247.092C499.602 265.887 469.884 290.328 421.64 306.288ZM401.624 345.898C406.503 370.496 407.193 392.736 403.977 410.114C401.075 425.737 395.24 436.153 388.024 440.327C372.659 449.199 339.812 437.664 304.384 407.224C300.321 403.731 296.235 400.012 292.125 396.065C306.895 379.737 320.545 362.433 332.98 344.269C355.194 342.39 377.251 338.989 398.997 334.089C399.99 338.098 400.872 342.014 401.64 345.836L401.624 345.898ZM199.175 438.807C184.163 444.101 172.21 444.25 164.986 440.092C149.613 431.235 143.221 397.02 151.943 351.208C152.989 345.794 154.173 340.408 155.496 335.052C177.152 339.695 199.098 342.868 221.183 344.551C233.982 362.651 247.96 379.891 263.027 396.159C259.999 399.088 256.904 401.935 253.74 404.703C234.83 421.211 215.873 432.895 199.175 438.807V438.807ZM128.868 306.171C105.095 298.057 85.4713 287.517 72.0123 276.02C59.9258 265.683 53.8238 255.417 53.8238 247.092C53.8238 229.37 80.2869 206.762 124.413 191.405C129.956 189.478 135.548 187.721 141.19 186.134C147.744 207.121 155.68 227.652 164.947 247.593C155.565 267.821 147.532 288.645 140.899 309.93C136.852 308.776 132.842 307.523 128.868 306.171ZM152.437 145.992C143.276 99.2472 149.354 63.9834 164.664 55.1498C180.971 45.7524 217.026 59.1594 255.034 92.8569C257.466 95.0105 259.905 97.2659 262.344 99.5918C247.386 115.76 233.517 132.901 220.83 150.902C198.953 152.861 177.226 156.232 155.786 160.996C154.536 156.026 153.42 151.027 152.437 145.999V145.992ZM362.722 197.826C357.959 189.609 353.02 181.495 347.906 173.487C363.459 175.452 378.354 178.052 392.346 181.248C387.856 195.469 382.649 209.455 376.746 223.152C372.244 214.616 367.569 206.174 362.722 197.826ZM276.948 114.448C287.085 125.482 296.658 137.018 305.631 149.014C286.436 148.111 267.233 148.111 248.022 149.014C257.489 136.547 267.191 124.957 276.948 114.455V114.448ZM190.673 197.967C185.888 206.252 181.3 214.642 176.908 223.137C170.845 208.782 165.661 194.662 161.425 181.028C175.331 177.896 190.163 175.382 205.614 173.448C200.427 181.509 195.441 189.682 190.657 197.967H190.673ZM206.053 322.209C190.972 320.574 175.985 318.167 161.151 314.996C165.457 301.127 170.759 286.702 176.955 272.034C181.363 280.539 185.967 288.934 190.767 297.22C195.651 305.672 200.741 314.002 206.038 322.209H206.053ZM277.537 381.201C267.654 370.598 257.811 358.851 248.211 346.157C257.544 346.527 267.05 346.713 276.729 346.713C286.663 346.713 296.47 346.493 306.149 346.055C297.215 358.251 287.659 369.982 277.521 381.201H277.537ZM376.903 271.29C383.112 285.265 388.589 299.553 393.311 314.096C378.293 317.47 363.109 320.055 347.82 321.841C352.97 313.681 357.959 305.424 362.785 297.071C367.689 288.582 372.395 279.988 376.903 271.29ZM344.745 286.687C337.362 299.488 329.569 312.044 321.365 324.355C306.902 325.388 291.96 325.921 276.729 325.921C261.497 325.921 246.807 325.451 232.595 324.527C224.182 312.258 216.236 299.684 208.759 286.804C201.282 273.924 194.351 260.851 187.967 247.585C194.383 234.257 201.292 221.179 208.696 208.351C216.09 195.529 223.967 182.999 232.328 170.762C246.83 169.665 261.685 169.094 276.713 169.094C291.741 169.094 306.69 169.673 321.176 170.769C329.443 182.97 337.286 195.451 344.706 208.21C352.126 220.97 359.13 233.988 365.718 247.264C359.208 260.64 352.225 273.77 344.769 286.655L344.745 286.687ZM387.703 54.5233C404.024 63.9207 410.37 101.824 400.119 151.528C399.444 154.76 398.712 157.984 397.922 161.2C376.45 156.339 354.68 152.904 332.753 150.917C320.188 132.901 306.423 115.748 291.552 99.5761C295.213 96.0573 298.949 92.6351 302.76 89.3094C338.745 58.0395 372.377 45.6976 387.703 54.5233Z" fill="white"/>
<path id="Vector_3" d="M276.713 203.629C285.323 203.629 293.739 206.178 300.897 210.954C308.056 215.73 313.635 222.518 316.93 230.459C320.224 238.401 321.086 247.14 319.407 255.571C317.727 264.002 313.581 271.747 307.493 277.825C301.406 283.904 293.649 288.043 285.205 289.72C276.761 291.397 268.009 290.536 260.055 287.247C252.101 283.957 245.302 278.386 240.519 271.239C235.736 264.091 233.183 255.688 233.183 247.092C233.182 241.384 234.307 235.732 236.495 230.458C238.682 225.185 241.888 220.393 245.93 216.357C249.973 212.321 254.772 209.119 260.054 206.935C265.335 204.752 270.996 203.628 276.713 203.629" fill="#53C1DE"/>
</g>
</g>
</svg>
