<svg width="921" height="734" viewBox="0 0 921 734" fill="none" xmlns="http://www.w3.org/2000/svg">
<g id="Group 16" opacity="0.2">
<path id="Vector" d="M56.6119 258.946C55.7059 258.945 54.808 258.795 53.964 258.504C52.5992 258.041 51.4262 257.222 50.6008 256.157C49.7754 255.091 49.3367 253.829 49.3429 252.538V185.666C49.34 183.403 48.3205 181.233 46.508 179.632C44.6955 178.032 42.238 177.131 39.6747 177.129H24.1669C17.7597 177.122 11.6169 174.872 7.08626 170.871C2.55564 166.871 0.00718095 161.446 0 155.788V21.3401C0.00718521 15.6823 2.55564 10.2581 7.08626 6.25738C11.6169 2.25671 17.7597 0.00634099 24.1669 0H571.169C577.577 0.00634851 583.719 2.25671 588.25 6.25738C592.78 10.2581 595.329 15.6823 595.336 21.3401V155.788C595.329 161.446 592.78 166.87 588.25 170.871C583.719 174.872 577.577 177.122 571.169 177.129H148.961C147.621 177.13 146.296 177.377 145.069 177.853C143.842 178.33 142.741 179.026 141.834 179.897L61.9364 256.864C61.2617 257.519 60.4397 258.042 59.5229 258.401C58.606 258.759 57.6146 258.945 56.6119 258.946V258.946ZM24.1669 2.84359C18.6135 2.84912 13.2892 4.79964 9.36233 8.26721C5.43542 11.7348 3.22654 16.4362 3.22026 21.3401V155.788C3.22654 160.692 5.43543 165.394 9.36233 168.861C13.2892 172.329 18.6135 174.279 24.1669 174.285H39.6746C43.0918 174.288 46.3678 175.489 48.7841 177.622C51.2003 179.756 52.5594 182.649 52.5632 185.666V252.538C52.5632 253.255 52.8085 253.955 53.2668 254.546C53.7252 255.138 54.3752 255.594 55.1318 255.854C55.8884 256.113 56.7163 256.165 57.5069 256.003C58.2975 255.84 59.0141 255.47 59.5627 254.942L139.46 177.976C140.669 176.814 142.137 175.886 143.773 175.251C145.408 174.616 147.175 174.287 148.961 174.285H571.169C576.723 174.279 582.047 172.329 585.974 168.861C589.901 165.394 592.11 160.692 592.116 155.788V21.3401C592.11 16.4362 589.901 11.7348 585.974 8.26721C582.047 4.79964 576.723 2.84913 571.169 2.84359H24.1669Z" fill="white"/>
<path id="Vector_2" d="M59.2784 60.5544C70.9576 60.5544 80.4254 52.194 80.4254 41.8809C80.4254 31.5679 70.9576 23.2075 59.2784 23.2075C47.5992 23.2075 38.1314 31.5679 38.1314 41.8809C38.1314 52.194 47.5992 60.5544 59.2784 60.5544Z" fill="white"/>
<path id="Vector_3" d="M546.498 145.207H48.8383C47.3561 145.208 45.8881 144.952 44.5181 144.452C43.1482 143.952 41.9033 143.219 40.8546 142.294C39.8059 141.369 38.9739 140.271 38.4063 139.062C37.8386 137.853 37.5464 136.557 37.5464 135.248C37.5464 133.939 37.8386 132.643 38.4063 131.434C38.9739 130.225 39.8059 129.126 40.8546 128.201C41.9033 127.276 43.1482 126.543 44.5181 126.043C45.8881 125.543 47.3561 125.287 48.8383 125.289H546.498C547.98 125.287 549.448 125.543 550.818 126.043C552.188 126.543 553.433 127.276 554.481 128.201C555.53 129.126 556.362 130.225 556.93 131.434C557.497 132.643 557.789 133.939 557.789 135.248C557.789 136.557 557.497 137.853 556.93 139.062C556.362 140.271 555.53 141.369 554.481 142.294C553.433 143.219 552.188 143.952 550.818 144.452C549.448 144.952 547.98 145.208 546.498 145.207V145.207Z" fill="white"/>
<path id="Vector_4" d="M384.371 102.881H48.8383C47.3561 102.882 45.8881 102.626 44.5181 102.126C43.1482 101.626 41.9033 100.893 40.8546 99.968C39.8059 99.043 38.9739 97.9446 38.4063 96.7355C37.8386 95.5264 37.5464 94.2304 37.5464 92.9216C37.5464 91.6127 37.8386 90.3167 38.4063 89.1076C38.9739 87.8985 39.8059 86.8001 40.8546 85.8752C41.9033 84.9502 43.1482 84.2169 44.5181 83.7171C45.8881 83.2173 47.3561 82.9608 48.8383 82.9624H384.371C385.853 82.9608 387.321 83.2173 388.691 83.7171C390.061 84.2169 391.306 84.9502 392.354 85.8752C393.403 86.8001 394.235 87.8985 394.803 89.1076C395.37 90.3167 395.663 91.6127 395.663 92.9216C395.663 94.2304 395.37 95.5264 394.803 96.7355C394.235 97.9446 393.403 99.043 392.354 99.968C391.306 100.893 390.061 101.626 388.691 102.126C387.321 102.626 385.853 102.882 384.371 102.881V102.881Z" fill="white"/>
<path id="Vector_5" d="M56.6119 733.25C55.7059 733.249 54.808 733.1 53.964 732.809C52.5992 732.346 51.4263 731.527 50.6009 730.461C49.7755 729.396 49.3368 728.133 49.3429 726.842V659.971C49.34 657.707 48.3205 655.537 46.508 653.937C44.6955 652.336 42.238 651.436 39.6747 651.433H24.1669C17.7597 651.427 11.6169 649.177 7.08629 645.176C2.55567 641.175 0.007198 635.751 0 630.093V495.645C0.0071852 489.987 2.55564 484.563 7.08626 480.562C11.6169 476.561 17.7597 474.311 24.1669 474.305H571.169C577.577 474.311 583.719 476.561 588.25 480.562C592.78 484.563 595.329 489.987 595.336 495.645V630.093C595.329 635.751 592.78 641.175 588.25 645.176C583.719 649.177 577.577 651.427 571.169 651.433H148.961C147.621 651.435 146.296 651.681 145.069 652.158C143.842 652.634 142.741 653.33 141.834 654.202L61.9364 731.168C61.2617 731.823 60.4397 732.347 59.5229 732.705C58.606 733.064 57.6146 733.249 56.6119 733.25V733.25ZM24.1669 477.148C18.6135 477.154 13.2892 479.104 9.36233 482.572C5.43542 486.039 3.22653 490.741 3.22026 495.645V630.093C3.22654 634.997 5.43543 639.699 9.36233 643.166C13.2892 646.634 18.6135 648.584 24.1669 648.59H39.6746C43.0918 648.593 46.3678 649.793 48.7841 651.927C51.2003 654.061 52.5594 656.954 52.5632 659.971V726.842C52.5632 727.559 52.8085 728.259 53.2668 728.851C53.7252 729.443 54.3752 729.898 55.1318 730.158C55.8884 730.418 56.7163 730.47 57.5069 730.307C58.2975 730.145 59.0141 729.775 59.5627 729.247L139.46 652.28C140.669 651.119 142.137 650.191 143.773 649.556C145.408 648.92 147.175 648.591 148.961 648.59H571.169C576.723 648.584 582.047 646.634 585.974 643.166C589.901 639.699 592.11 634.997 592.116 630.093V495.645C592.11 490.741 589.901 486.039 585.974 482.572C582.047 479.104 576.723 477.154 571.169 477.148L24.1669 477.148Z" fill="white"/>
<path id="Vector_6" d="M864.388 486.762C863.385 486.761 862.394 486.575 861.477 486.217C860.56 485.858 859.738 485.335 859.064 484.679L779.166 407.713C778.259 406.842 777.158 406.146 775.931 405.669C774.704 405.193 773.379 404.946 772.039 404.944H349.831C343.424 404.938 337.281 402.688 332.75 398.687C328.22 394.686 325.671 389.262 325.664 383.604V249.156C325.671 243.498 328.22 238.074 332.75 234.073C337.281 230.073 343.424 227.822 349.831 227.816H896.833C903.24 227.822 909.383 230.073 913.914 234.073C918.444 238.074 920.993 243.498 921 249.156V383.604C920.993 389.262 918.444 394.686 913.914 398.687C909.383 402.688 903.24 404.938 896.833 404.944H881.325C878.762 404.947 876.305 405.847 874.492 407.448C872.68 409.049 871.66 411.219 871.657 413.482V480.354C871.663 481.645 871.225 482.907 870.399 483.972C869.574 485.038 868.401 485.856 867.036 486.319C866.192 486.611 865.294 486.761 864.388 486.762V486.762ZM349.831 230.659C344.277 230.665 338.953 232.616 335.026 236.083C331.099 239.551 328.89 244.252 328.884 249.156V383.604C328.89 388.508 331.099 393.21 335.026 396.677C338.953 400.145 344.277 402.095 349.831 402.101H772.039C773.825 402.103 775.592 402.431 777.227 403.067C778.862 403.702 780.331 404.63 781.539 405.791L861.437 482.758C861.986 483.286 862.703 483.656 863.493 483.819C864.284 483.981 865.112 483.929 865.868 483.669C866.625 483.41 867.275 482.954 867.733 482.362C868.192 481.771 868.437 481.071 868.437 480.354V413.482C868.441 410.465 869.8 407.572 872.216 405.438C874.632 403.305 877.908 402.104 881.325 402.101H896.833C902.387 402.095 907.711 400.145 911.638 396.677C915.565 393.21 917.774 388.508 917.78 383.604V249.156C917.774 244.252 915.565 239.551 911.638 236.083C907.711 232.616 902.387 230.665 896.833 230.66L349.831 230.659Z" fill="#BEA187"/>
<path id="Vector_7" d="M59.2784 534.86C70.9576 534.86 80.4254 526.499 80.4254 516.186C80.4254 505.873 70.9576 497.513 59.2784 497.513C47.5992 497.513 38.1314 505.873 38.1314 516.186C38.1314 526.499 47.5992 534.86 59.2784 534.86Z" fill="white"/>
<path id="Vector_8" d="M546.498 619.512H48.8383C47.3561 619.513 45.8881 619.257 44.5181 618.757C43.1482 618.257 41.9033 617.524 40.8546 616.599C39.8059 615.674 38.9739 614.575 38.4063 613.366C37.8386 612.157 37.5464 610.861 37.5464 609.552C37.5464 608.244 37.8386 606.948 38.4063 605.738C38.9739 604.529 39.8059 603.431 40.8546 602.506C41.9033 601.581 43.1482 600.848 44.5181 600.348C45.8881 599.848 47.3561 599.592 48.8383 599.593H546.498C549.489 599.593 552.358 600.643 554.473 602.51C556.588 604.378 557.776 606.911 557.776 609.552C557.776 612.194 556.588 614.727 554.473 616.595C552.358 618.462 549.489 619.512 546.498 619.512Z" fill="white"/>
<path id="Vector_9" d="M384.371 577.186H48.8383C47.3561 577.187 45.8881 576.931 44.5181 576.431C43.1482 575.931 41.9033 575.198 40.8546 574.273C39.8059 573.348 38.9739 572.25 38.4063 571.041C37.8386 569.832 37.5464 568.536 37.5464 567.227C37.5464 565.918 37.8386 564.622 38.4063 563.413C38.9739 562.204 39.8059 561.105 40.8546 560.18C41.9033 559.255 43.1482 558.522 44.5181 558.022C45.8881 557.522 47.3561 557.266 48.8383 557.268H384.371C385.853 557.266 387.321 557.522 388.691 558.022C390.061 558.522 391.306 559.255 392.354 560.18C393.403 561.105 394.235 562.204 394.803 563.413C395.37 564.622 395.663 565.918 395.663 567.227C395.663 568.536 395.37 569.832 394.803 571.041C394.235 572.25 393.403 573.348 392.354 574.273C391.306 575.198 390.061 575.931 388.691 576.431C387.321 576.931 385.853 577.187 384.371 577.186Z" fill="white"/>
<path id="Vector_10" d="M384.942 287.125C396.621 287.125 406.089 278.765 406.089 268.452C406.089 258.139 396.621 249.778 384.942 249.778C373.263 249.778 363.795 258.139 363.795 268.452C363.795 278.765 373.263 287.125 384.942 287.125Z" fill="white"/>
<path id="Vector_11" d="M872.161 371.778H374.502C371.511 371.778 368.642 370.728 366.527 368.861C364.412 366.993 363.224 364.46 363.224 361.819C363.224 359.177 364.412 356.644 366.527 354.776C368.642 352.909 371.511 351.859 374.502 351.859H872.161C875.153 351.859 878.021 352.909 880.136 354.776C882.252 356.644 883.44 359.177 883.44 361.819C883.44 364.46 882.252 366.993 880.136 368.861C878.021 370.728 875.153 371.778 872.161 371.778V371.778Z" fill="white"/>
<path id="Vector_12" d="M710.035 329.452H374.502C373.02 329.453 371.552 329.197 370.182 328.697C368.812 328.197 367.567 327.464 366.519 326.539C365.47 325.614 364.638 324.515 364.07 323.306C363.503 322.097 363.21 320.801 363.21 319.492C363.21 318.184 363.503 316.887 364.07 315.678C364.638 314.469 365.47 313.371 366.519 312.446C367.567 311.521 368.812 310.788 370.182 310.288C371.552 309.788 373.02 309.532 374.502 309.533H710.035C711.517 309.532 712.985 309.788 714.355 310.288C715.725 310.788 716.97 311.521 718.018 312.446C719.067 313.371 719.899 314.469 720.467 315.678C721.034 316.887 721.327 318.184 721.327 319.492C721.327 320.801 721.034 322.097 720.467 323.306C719.899 324.515 719.067 325.614 718.018 326.539C716.97 327.464 715.725 328.197 714.355 328.697C712.985 329.197 711.517 329.453 710.035 329.452Z" fill="white"/>
</g>
</svg>
