<svg width="768" height="895" viewBox="0 0 768 895" fill="none" xmlns="http://www.w3.org/2000/svg">
<path id="Vector 30" opacity="0.1" d="M44.1895 534.362C70.264 592.846 60.1358 678.288 43.5667 746.703C38.0191 769.613 31.7422 793.854 34.0858 818.413C36.9457 848.45 52.1135 870.45 68.1089 882.014C97.1989 903.233 132.025 898.174 158.747 868.845C181.847 843.492 198.391 802.267 221.885 778.069C261.218 737.596 311.253 752.875 353.945 780.758C384.15 800.489 417.173 826.16 447.189 805.534C468.306 791.079 482.908 755.708 490.865 718.27C494.708 700.187 497.494 680.688 504.796 666.233C509.155 657.719 514.842 651.662 520.676 646.574C573.94 600.015 641.134 624.892 692.824 573.317C727.74 538.452 750.094 472.669 760.018 404.081C769.941 335.493 768.761 263.566 766.246 192.94C764.459 142.738 761.255 89.1543 743.072 50.4011C723.84 9.42175 690.824 -5.82805 660.989 1.96308C631.153 9.75421 604.095 37.6519 580.331 70.3487C550.594 111.212 523.02 162.108 486.506 178.673C461.644 189.948 435.488 183.775 409.839 181.651C366.966 178.08 324.085 185.987 281.45 194.66C240.633 202.986 199.506 212.15 160.64 235.567C133.123 252.146 111.064 282.227 85.0795 303.244C68.1417 316.947 49.6715 320.734 33.6433 338.181C13.8867 359.676 -4.2147 397.07 0.865816 440.81C5.63494 482.455 30.341 503.327 44.1895 534.362Z" fill="#BEA187"/>
</svg>
